<?xml version="1.0" standalone="no"?>
<!DOCTYPE svg PUBLIC "-//W3C//DTD SVG 20010904//EN"
 "http://www.w3.org/TR/2001/REC-SVG-20010904/DTD/svg10.dtd">
<svg version="1.0" xmlns="http://www.w3.org/2000/svg"
 width="512.000000pt" height="512.000000pt" viewBox="0 0 512.000000 512.000000"
 preserveAspectRatio="xMidYMid meet">
<metadata>
Created by potrace 1.11, written by Peter Selinger 2001-2013
</metadata>
<g transform="translate(0.000000,512.000000) scale(0.100000,-0.100000)"
fill="#000000" stroke="none">
<path d="M2394 5063 c-44 -32 -110 -81 -149 -110 -38 -29 -87 -65 -107 -80
-21 -15 -48 -36 -60 -47 -13 -10 -34 -26 -48 -35 -14 -9 -32 -21 -40 -28 -8
-7 -121 -91 -250 -188 -129 -96 -248 -185 -264 -197 -16 -13 -45 -34 -65 -48
-20 -14 -41 -29 -47 -35 -6 -5 -22 -18 -35 -27 -19 -14 -359 -268 -479 -358
-14 -10 -95 -70 -180 -134 -85 -63 -159 -119 -165 -123 -5 -5 -26 -20 -45 -33
-19 -14 -37 -27 -40 -30 -3 -3 -80 -61 -172 -130 -92 -69 -172 -135 -178 -148
-7 -16 -10 -527 -10 -1618 0 -1769 -5 -1645 65 -1678 30 -14 269 -16 2441 -16
l2408 0 33 23 c76 51 68 163 -14 202 -30 15 -262 16 -2363 16 l-2330 0 0 1479
0 1479 57 43 c32 24 62 47 68 51 5 4 53 40 105 79 52 38 106 79 120 89 24 18
322 242 365 273 79 58 535 399 555 414 32 26 202 152 231 172 12 8 27 20 33
25 6 6 40 32 76 58 243 180 419 312 442 330 15 12 77 58 137 102 139 101 162
142 125 220 -17 37 -66 65 -112 65 -20 0 -54 -18 -108 -57z"/>
<path d="M1960 2508 c-248 -26 -410 -195 -415 -433 -3 -133 36 -238 122 -322
54 -53 152 -108 213 -119 117 -20 176 -20 285 0 55 10 159 69 208 118 52 52
102 146 115 219 24 127 -8 272 -81 367 -81 105 -168 147 -357 176 -8 1 -49 -2
-90 -6z m160 -233 c157 -81 151 -345 -8 -421 -88 -41 -211 -11 -263 64 -13 20
-24 38 -25 41 0 3 -5 15 -10 26 -15 35 -9 147 10 187 40 84 124 131 219 122
27 -2 62 -11 77 -19z"/>
<path d="M585 2490 c-2 -3 71 -122 162 -265 l166 -260 -2 -157 -1 -158 143 0
143 0 -1 156 0 157 30 48 c16 27 55 88 86 137 164 255 219 341 219 344 0 7
-276 2 -288 -6 -6 -4 -12 -11 -12 -16 0 -4 -22 -41 -48 -82 -27 -40 -66 -99
-87 -131 l-38 -58 -60 93 c-32 51 -75 118 -95 148 l-35 55 -140 0 c-76 0 -140
-2 -142 -5z"/>
<path d="M2616 2492 c-2 -4 -4 -195 -5 -424 l0 -416 127 1 127 2 5 100 5 100
57 1 57 1 36 -86 c20 -47 39 -93 44 -101 7 -12 36 -15 150 -17 77 -1 141 0
141 4 0 6 -50 113 -105 224 l-33 67 28 27 c52 50 83 121 86 199 6 150 -67 247
-226 299 -69 23 -91 25 -282 25 -114 0 -210 -2 -212 -6z m386 -215 c43 -14 78
-55 78 -91 -1 -81 -66 -122 -187 -117 -22 1 -23 4 -23 112 l0 110 53 -2 c28
-1 64 -7 79 -12z"/>
<path d="M3508 1419 c-220 -52 -364 -233 -353 -446 7 -152 80 -268 220 -350
126 -74 312 -92 460 -43 97 32 100 36 75 96 -62 145 -61 144 -85 128 -89 -58
-249 -49 -336 19 -67 52 -93 178 -55 268 50 118 225 170 364 109 42 -19 45
-19 58 -3 7 10 16 31 20 48 4 16 10 36 15 45 43 81 42 86 -16 108 -109 40
-251 49 -367 21z"/>
<path d="M850 1410 c-103 -38 -151 -77 -182 -149 -37 -86 -18 -204 42 -269 47
-50 145 -91 255 -107 114 -16 127 -21 123 -53 -4 -39 -47 -56 -138 -55 -49 1
-97 9 -135 22 -33 12 -68 23 -79 26 -10 2 -24 9 -31 15 -11 9 -16 3 -25 -32
-6 -24 -18 -66 -26 -95 -7 -28 -14 -55 -14 -61 0 -8 93 -52 125 -59 159 -34
258 -38 345 -14 46 13 107 39 125 53 80 64 108 114 111 201 6 153 -84 239
-286 272 -19 3 -48 8 -65 11 -74 12 -95 26 -88 55 9 33 61 49 150 45 44 -2 89
-9 101 -15 12 -6 22 -9 22 -6 0 3 13 -1 30 -10 16 -8 31 -15 33 -15 4 0 16 49
22 90 15 105 15 107 -11 119 -110 50 -312 65 -404 31z"/>
<path d="M1510 1420 l-35 -5 -1 -417 c0 -230 2 -419 5 -419 20 -5 251 -4 252
1 1 3 2 44 3 92 1 48 4 89 6 91 3 3 43 7 90 10 128 8 223 43 287 104 54 53 73
85 87 156 23 107 0 206 -62 275 -39 42 -121 87 -182 97 -19 3 -44 9 -55 12
-24 8 -346 10 -395 3z m371 -213 c49 -21 71 -50 72 -96 2 -83 -48 -124 -153
-125 l-65 -1 0 115 c-1 63 1 118 2 122 6 12 106 1 144 -15z"/>
<path d="M2525 1411 c-1 -4 -19 -46 -40 -96 -20 -49 -43 -103 -50 -120 -7 -16
-36 -86 -65 -155 -28 -69 -55 -134 -60 -145 -5 -11 -16 -38 -26 -60 -9 -22
-22 -53 -29 -70 -54 -127 -75 -178 -75 -186 0 -5 56 -9 124 -9 l124 0 28 73
29 72 170 1 c178 0 195 -1 195 -19 0 -6 10 -37 22 -69 l23 -57 127 0 c71 0
128 1 128 3 0 2 -9 25 -21 52 -22 54 -24 58 -69 159 -18 39 -33 75 -34 80 -1
6 -12 32 -24 59 -12 27 -22 51 -22 54 0 2 -9 23 -19 46 -32 69 -61 136 -82
190 -11 28 -31 73 -43 101 -12 27 -27 61 -33 75 -10 25 -11 25 -142 26 -73 0
-134 -2 -136 -5z m179 -349 c22 -59 41 -113 44 -119 3 -10 -18 -13 -87 -13
-99 0 -103 3 -76 54 8 15 15 34 15 41 0 8 8 28 17 47 30 60 33 68 33 83 0 37
18 7 54 -93z"/>
<path d="M4054 996 l0 -421 338 0 c186 0 339 2 339 5 1 3 2 49 3 103 2 82 0
97 -13 98 -9 1 -99 3 -201 4 -102 1 -191 3 -197 4 -9 1 -13 19 -13 55 0 43 4
55 18 58 9 2 77 4 150 3 l132 -1 1 48 c0 26 1 67 1 91 l1 42 -150 3 -151 3 0
58 0 59 167 1 c91 0 181 0 199 0 l32 1 0 104 0 104 -328 0 -328 0 0 -422z"/>
</g>
</svg>
