<svg xmlns="http://www.w3.org/2000/svg" width="250" height="256" viewBox="0 0 250 256">
  <path fill="#fff" d="M56.8 173.5H42.6v-15.8l-16.8-26.4h14.6l9.5 14.9 9.5-14.9h14.3l-16.9 26.3v15.9zM121.8 152.7c0 13.3-9.5 22.4-23.7 22.4-13.8 0-24-8.7-24-22.3 0-13.7 10.4-22.4 24-22.4 13.4 0 23.7 8.5 23.7 22.3zm-34.7 0c0 6.3 4 11.6 11 11.6s10.7-5.4 10.7-11.6c0-6.4-3.9-11.6-10.7-11.6-6.8 0-11 5.2-11 11.6zM146.5 163.1l-1.1.1c-1.6.1-3.3.2-5 0v10.2h-12.8v-42.2c5.4-.1 10.8-.3 16.3-.2 12.2.1 20.1 6 20.1 15.4 0 5.1-2.3 9.2-5.9 12.1l7.2 14.9h-14.5l-4.3-10.3zm4.6-16.1c0-3.7-3.5-5.1-6.4-5.4-1.4-.2-3-.1-4.2-.1v11.1c1.4.1 3 .1 4.6-.1 4-.6 6-2.6 6-5.5zM61.1 187.6l-1.7 9.9c-3.1-1.4-6.8-2.5-10.8-2.5-3.4 0-6.5.8-6.4 2.8.1 2.4 4.6 2.2 9.8 3.3 5.8 1.3 12.5 4.2 12.5 12.5 0 9.6-9 14.3-18.8 14.3-7.7 0-14.3-2.9-16.9-4.2l2.8-10.1c2.3 1.2 7.5 3.7 13.5 3.7 4.2-.1 6.6-1.3 6.6-3 0-2.5-5.3-2-10.7-3.4-6.3-1.6-11.6-5.4-11.6-12.8-.1-10.1 9.3-13.7 17.7-13.7 5.9.1 11.1 1.9 14 3.2zM70.7 185.1c4.8-.3 11.3-.4 13.6-.4 14.4 0 23.4 4.2 23.4 15.8 0 12.1-9.7 16-17.6 16.8-2.2.2-4.8.3-6.4.3v9.7h-13v-42.2zm13 22c1.6 0 3.3-.1 4.6-.2 3.7-.4 6.5-2.4 6.5-6s-2.7-5.7-6.6-6.1c-1.4-.1-2.7-.1-4.5-.1v12.4zM121.2 220.2l-2.7 7.2h-12.8l17.7-42.2h13.2l18 42.2h-12.9l-2.7-7.2h-17.8zM130 197l-4.8 12.5h9.5L130 197zM193.4 187.2l-4 9.9c-2.6-1.5-5.7-2.5-8.9-2.5-6.9 0-12.8 4.2-12.8 11.6s5.8 11.7 12.7 11.7c3.2 0 6.3-1 9-2.8l4.3 9.8c-3.1 1.7-7.8 3.6-13.9 3.6-12.5.1-25.2-8-25.2-22.2 0-13.3 11.3-22.1 24.7-22.2 6.4-.1 11.4 1.8 14.1 3.1zM212.6 195.7v5.8h15v9.3h-15v6h21.2v10.5h-34.1v-42.2h32.8v10.5h-19.9z"/>
  <path fill="#fff" d="M244 256H6c-3.3 0-6-2.7-6-6V93c0-1.9.9-3.7 2.4-4.8l116.5-87c2.7-2 6.4-1.4 8.4 1.2 2 2.7 1.4 6.4-1.2 8.4L12 96v148h232c3.3 0 6 2.7 6 6s-2.7 6-6 6z"/>
</svg>
