<svg class="live-house-icon" xmlns="http://www.w3.org/2000/svg" width="159.7" height="172" viewBox="0 0 159.7 172"><g fill="#55D6BE" stroke="#001748" stroke-width="1.755" stroke-miterlimit="10"><path d="M78.4 168.4c0-9.2-7.4-16.6-16.6-16.6-1.2 0-2.4.1-3.5.4-2-6.9-8.4-12-15.9-12-5.5 0-10.4 2.7-13.4 6.9-1.1-.2-2.3-.3-3.4-.3-11.8 0-21.4 9.6-21.4 21.4 0 .9.1 1.8.2 2.7h73.9c.1-.8.1-1.7.1-2.5zM78.2 170.9H4.3"/></g><g fill="#55D6BE" stroke="#001748" stroke-width="1.755" stroke-miterlimit="10"><path d="M156.2 168.4c0-9.2-7.4-16.6-16.6-16.6-1.2 0-2.4.1-3.5.4-2-6.9-8.4-12-15.9-12-5.5 0-10.4 2.7-13.4 6.9-1.1-.2-2.3-.3-3.4-.3-11.8 0-21.4 9.6-21.4 21.4 0 .9.1 1.8.2 2.7H156c.1-.8.2-1.7.2-2.5zM156 170.9H82.1"/></g><path fill="#FFF" stroke="#001748" stroke-width="1.755" stroke-miterlimit="10" d="M122.9 170.7H43V21l79.9 45.6z"/><path fill="#55D6BE" stroke="#001748" stroke-width="1.7548947" stroke-miterlimit="10" d="M34.035 11.753l101.319 57.895-2.332 4.08L31.703 15.835z"/><path fill="#FFF" stroke="#001748" stroke-width="1.7548947" stroke-miterlimit="10" d="M34.052 6.458L135.37 64.353l-2.332 4.08L31.72 10.538z"/><path fill="#55D6BE" stroke="#001748" stroke-width="1.7548947" stroke-miterlimit="10" d="M34.069 1.163l101.319 57.895-2.332 4.08L31.737 5.243z"/><path fill="#001748" d="M90.9 129.8H110v40.9H90.9z"/><path fill="#FF9C12" stroke="#001748" stroke-width="1.755" stroke-miterlimit="10" d="M55.8 129.2h19.1v21.6H55.8zM55.8 93.1h19.1v21.6H55.8zM55.8 57h19.1v21.6H55.8zM96.1 73.4h8.6v46.4h-8.6z"/><path fill="none" stroke="#001748" stroke-width="1.755" stroke-linecap="round" stroke-linejoin="round" stroke-miterlimit="10" d="M.9 171.1h158"/></svg>
