<svg class="cloud-background" xmlns="http://www.w3.org/2000/svg" width="1298.5" height="321.7" viewBox="0 0 1298.5 321.7">
  <path fill="#EEFDFD" d="M1295.9 183.5c-26.9-42.2-76.4-70.5-133-70.5-14.1 0-27.7 1.9-40.8 5.2-25.2-43.6-74.6-73.2-131.5-73.2-48.3 0-91.2 21.4-118.5 54.6l-6.6-2.4C850.5 41.3 799.5 0 738.9 0c-50 0-93.4 27.9-115.6 69-11.4-3.1-23.4-4.9-35.8-4.9-42.4 0-80.2 19.4-105.1 49.8-13.6-6.1-28.6-9.4-44.5-9.4-41.8 0-78.1 23.4-96.7 57.7-9.6-2.6-19.6-4.1-29.9-4.1-31.6 0-60.3 12.9-80.9 33.8-4.7-2.4-9.7-4.4-14.8-6.1-12.6-46.8-55.2-81.3-105.9-81.3-41.8 0-78.1 23.4-96.7 57.7-9.6-2.6-2.6-4.1-12.9-4.1l.2 163.6h708.9c.1-.4.2-.9.3-1.3h589.1"/>
</svg>
