<svg class="home-plans--plan--icon" xmlns="http://www.w3.org/2000/svg" width="111" height="111" viewBox="0 0 111 111">
  <g stroke="#0D1D48" stroke-width="1.497" stroke-miterlimit="10">
    <path fill="#83D6C1" d="M72.4 24s4.3-8.8 20.4-4.6c0 0 1.5 8.5-2.4 13.1 2.8 1.9 8.5 7.3 9 10.3 3.1-.1 1.9-1.5 3.6 0 1.7 1.5 4.1 13.7 2.6 17.3s-2.3 3.5-3.9 3.1-5.9 12.1-14.6 15c0 0-2.2.1-2.2 2.1 0 1.9.3 9.7.3 9.7s-.6 2.8-6 2.4c-5.5-.5-5.1-6.2-5.8-7.8-.7-1.6-14.9 7.2-32-1.3-1 .1-1.3 5.7-1.3 6.4 0 .7-.5 2.7-3.5 2.7s-6.4 1.4-7.3-1.6c-.9-3-2.8-14.2-3.8-14.6-.9-.3-9.6-7.2-10.5-15.2s-3-27.5 23.9-35.7c11-2.9 19.7-4.3 33.5-1.3z"/>
    <path fill="none" d="M17.2 55.2c-2.5.2-5-.9-7.1-2.3-1-.7-2.1-1.4-2.7-2.5-.7-1-.9-2.4-.3-3.5s2.1-1.6 3.1-1c.3.2.5.5.7.7.7 1.1.8 2.4.4 3.6-.3 1.2-1 2.3-1.8 3.3-1.3 1.6-2.9 3-4.6 4"/>
    <path fill="none" d="M79.5 43.6c0-1.7 1.4-3 3-3s3 1.4 3 3"/>
  </g>
</svg>
