<svg xmlns="http://www.w3.org/2000/svg" width="83.35" height="80.85" version="1.1" viewBox="0 0 83.35 80.85">
    <defs>
        <clipPath id="a">
            <path fill="none" d="M0 0H83.35V80.85H0z"/>
        </clipPath>
    </defs>
    <path fill="#0D1D45" d="M0 0H1.81V76.19H0z"/>
    <path fill="#0D1D45" d="M12.9 38.3 12.9 44.92 21.01 44.92 21.01 38.3 23.06 38.3 23.06 53.69 21.01 53.69 21.01 46.64 12.9 46.64 12.9 53.69 10.85 53.69 10.85 38.3 12.9 38.3z"/>
    <g fill="#0D1D45" clip-path="url(#a)">
        <path d="M25.37 45.83a5.17 5.17 0 0 1 1-1.85 4.82 4.82 0 0 1 1.7-1.24 6.28 6.28 0 0 1 4.67 0A4.79 4.79 0 0 1 34.47 44a5.17 5.17 0 0 1 1 1.85 7.44 7.44 0 0 1 .34 2.3 7.27 7.27 0 0 1-.34 2.28 5.25 5.25 0 0 1-1 1.85 4.89 4.89 0 0 1-1.69 1.23 6.42 6.42 0 0 1-4.67 0 4.93 4.93 0 0 1-1.7-1.23 5.25 5.25 0 0 1-1-1.85 7.27 7.27 0 0 1-.41-2.3 7.44 7.44 0 0 1 .34-2.3m1.87 4.1a4 4 0 0 0 .79 1.32 3.21 3.21 0 0 0 1.11.8 3.39 3.39 0 0 0 2.7 0 3.21 3.21 0 0 0 1.11-.8 4 4 0 0 0 .74-1.32 6.14 6.14 0 0 0 0-3.6A4 4 0 0 0 32.9 45a3.27 3.27 0 0 0-1.11-.82 3.39 3.39 0 0 0-2.7 0A3.27 3.27 0 0 0 28 45a4 4 0 0 0-.74 1.33 6.14 6.14 0 0 0 0 3.6M39.27 42.54v1.64a4.36 4.36 0 0 1 5.48-1.46A2.39 2.39 0 0 1 46 44.18a3.87 3.87 0 0 1 1.47-1.4 4.19 4.19 0 0 1 2-.49 5.92 5.92 0 0 1 1.52.18 3.07 3.07 0 0 1 1.16.57 2.54 2.54 0 0 1 .76 1 3.69 3.69 0 0 1 .27 1.48v8.17h-1.83v-7.31a5 5 0 0 0-.09-1 2.1 2.1 0 0 0-.32-.78 1.59 1.59 0 0 0-.66-.53 2.62 2.62 0 0 0-1.09-.2 2.89 2.89 0 0 0-2.14.78 2.83 2.83 0 0 0-.77 2.07v6.94h-1.83v-7.28a5 5 0 0 0-.1-1 2.25 2.25 0 0 0-.35-.78 1.52 1.52 0 0 0-.63-.51 2.37 2.37 0 0 0-1-.19 2.72 2.72 0 0 0-1.37.33 2.93 2.93 0 0 0-.92.77 3.14 3.14 0 0 0-.52.94 2.55 2.55 0 0 0-.16.81v6.94h-1.85V42.54ZM63.33 53a5.06 5.06 0 0 1-3.15 1 5.72 5.72 0 0 1-2.32-.43 4.65 4.65 0 0 1-1.65-1.21 5.24 5.24 0 0 1-1-1.85 9.17 9.17 0 0 1-.38-2.35 6.66 6.66 0 0 1 .39-2.33 5.54 5.54 0 0 1 1.09-1.84A4.94 4.94 0 0 1 58 42.72a5 5 0 0 1 2.1-.43 4.55 4.55 0 0 1 2.47.61 4.91 4.91 0 0 1 1.58 1.56 6.64 6.64 0 0 1 .82 2.07 8.89 8.89 0 0 1 .18 2.14h-8.38a4.53 4.53 0 0 0 .23 1.39 3 3 0 0 0 .62 1.16 3.12 3.12 0 0 0 1.1.81 3.84 3.84 0 0 0 1.58.3 3.14 3.14 0 0 0 1.9-.54 2.57 2.57 0 0 0 1-1.63H65A4.48 4.48 0 0 1 63.33 53m-.44-7.16a3.19 3.19 0 0 0-.67-1 3.26 3.26 0 0 0-1-.67A3.22 3.22 0 0 0 60 43.9a3.3 3.3 0 0 0-1.29.25 3 3 0 0 0-1 .68 3.38 3.38 0 0 0-.65 1 4.1 4.1 0 0 0-.28 1.22h6.41a4 4 0 0 0-.29-1.23M68.11 51.2a2 2 0 0 0 .68.67 3.18 3.18 0 0 0 .95.36 5.52 5.52 0 0 0 1.09.1 7 7 0 0 0 .9-.06 3.09 3.09 0 0 0 .88-.24 1.55 1.55 0 0 0 .65-.51 1.29 1.29 0 0 0 .26-.85 1.23 1.23 0 0 0-.52-1.08 4.62 4.62 0 0 0-1.36-.59c-.54-.15-1.13-.29-1.76-.41a8.59 8.59 0 0 1-1.76-.52 3.62 3.62 0 0 1-1.35-.93 2.45 2.45 0 0 1-.53-1.68 2.67 2.67 0 0 1 .37-1.46 3.13 3.13 0 0 1 1-1 4.46 4.46 0 0 1 1.34-.56 6.3 6.3 0 0 1 1.48-.18 8.58 8.58 0 0 1 1.74.16 4.06 4.06 0 0 1 1.42.56 2.85 2.85 0 0 1 1 1.08 4.23 4.23 0 0 1 .41 1.72h-1.86a1.88 1.88 0 0 0-.29-.9 1.82 1.82 0 0 0-.6-.57 2.62 2.62 0 0 0-.81-.31 3.8 3.8 0 0 0-.89-.1 4.65 4.65 0 0 0-.83.07 3 3 0 0 0-.77.22 1.64 1.64 0 0 0-.56.43 1.13 1.13 0 0 0-.21.71 1 1 0 0 0 .33.78 2.72 2.72 0 0 0 .85.52 8.12 8.12 0 0 0 1.17.35l1.29.29q.69.15 1.35.36a4.82 4.82 0 0 1 1.16.57 2.83 2.83 0 0 1 .82.9 2.61 2.61 0 0 1 .31 1.34 3.12 3.12 0 0 1-.46 1.68 3.34 3.34 0 0 1-1.1 1.08 4.67 4.67 0 0 1-1.53.57 8.79 8.79 0 0 1-1.69.16 7.8 7.8 0 0 1-1.77-.2 4.33 4.33 0 0 1-1.49-.63 3.25 3.25 0 0 1-1-1.17 4 4 0 0 1-.42-1.75h1.83a2 2 0 0 0 .28 1"/>
        <path d="M21.48 60.95 21.48 62.67 12.9 62.67 12.9 67.57 20.9 67.57 20.9 69.29 12.9 69.29 12.9 74.62 21.55 74.62 21.55 76.34 10.85 76.34 10.85 60.95 21.48 60.95z"/>
        <path d="M24.79 65.2V67a3.85 3.85 0 0 1 3.62-2 4.88 4.88 0 0 1 1.84.3 3 3 0 0 1 1.18.84 3.16 3.16 0 0 1 .64 1.28 7.07 7.07 0 0 1 .22 1.58v7.33h-1.83V68.8a2.19 2.19 0 0 0-.61-1.64 2.24 2.24 0 0 0-1.66-.61 3.76 3.76 0 0 0-1.45.26 2.75 2.75 0 0 0-1 .74 3.14 3.14 0 0 0-.61 1.11 4.36 4.36 0 0 0-.2 1.39v6.29h-1.87V65.2ZM42.94 79.49A5.07 5.07 0 0 1 39 80.85a8 8 0 0 1-1.59-.17 4.92 4.92 0 0 1-1.41-.56 3.43 3.43 0 0 1-1.09-1 2.83 2.83 0 0 1-.48-1.53h1.84a1.35 1.35 0 0 0 .31.84 2.18 2.18 0 0 0 .71.56 3.45 3.45 0 0 0 .92.32 5.26 5.26 0 0 0 1 .09 3.39 3.39 0 0 0 1.53-.31 3 3 0 0 0 1-.86 3.61 3.61 0 0 0 .6-1.33 7.51 7.51 0 0 0 .18-1.7v-.74A3.16 3.16 0 0 1 41 76a4.5 4.5 0 0 1-2 .48 4.89 4.89 0 0 1-2.22-.48 4.58 4.58 0 0 1-1.56-1.22 5.17 5.17 0 0 1-.93-1.78 7.35 7.35 0 0 1-.29-2.18 8.5 8.5 0 0 1 .26-2 5.56 5.56 0 0 1 .86-1.9 4.73 4.73 0 0 1 1.6-1.4 4.92 4.92 0 0 1 2.44-.55 4.11 4.11 0 0 1 1.94.46 3.25 3.25 0 0 1 1.38 1.39v-1.6h1.72v10.2a5.83 5.83 0 0 1-1.25 4.1m-2.34-5a3 3 0 0 0 1-1 4.48 4.48 0 0 0 .57-1.4 6.77 6.77 0 0 0 .18-1.55 6.3 6.3 0 0 0-.17-1.44 4.26 4.26 0 0 0-.55-1.29 2.85 2.85 0 0 0-1-.91 2.91 2.91 0 0 0-1.47-.35 3.21 3.21 0 0 0-1.51.34 2.93 2.93 0 0 0-1 .89 3.75 3.75 0 0 0-.58 1.3 5.89 5.89 0 0 0-.19 1.53 7.81 7.81 0 0 0 .15 1.51 4.43 4.43 0 0 0 .52 1.37 3 3 0 0 0 1 1 2.82 2.82 0 0 0 1.51.38 3 3 0 0 0 1.54-.38"/>
        <path d="M46.5 60.95H48.33V76.35000000000001H46.5z"/>
        <path d="M60.57 76.3a2.53 2.53 0 0 1-1.31.28 1.55 1.55 0 0 1-1.13-.4 1.72 1.72 0 0 1-.42-1.3 4.4 4.4 0 0 1-1.71 1.3 5.74 5.74 0 0 1-2.17.4 6 6 0 0 1-1.43-.17 3.56 3.56 0 0 1-1.18-.54 2.63 2.63 0 0 1-.78-1 3.16 3.16 0 0 1-.3-1.44 3.21 3.21 0 0 1 .33-1.55 2.79 2.79 0 0 1 .85-1 3.86 3.86 0 0 1 1.21-.57 12.24 12.24 0 0 1 1.39-.32c.5-.1 1-.18 1.43-.23a7.17 7.17 0 0 0 1.2-.22 2.1 2.1 0 0 0 .82-.4 1 1 0 0 0 .3-.79 1.83 1.83 0 0 0-.23-1 1.48 1.48 0 0 0-.58-.56 2.28 2.28 0 0 0-.8-.26 5.1 5.1 0 0 0-.87-.07 3.81 3.81 0 0 0-1.99.54 1.86 1.86 0 0 0-.84 1.67h-1.83a3.83 3.83 0 0 1 .47-1.75 3.27 3.27 0 0 1 1-1.15 4.29 4.29 0 0 1 1.48-.64 7.77 7.77 0 0 1 1.78-.19 10.8 10.8 0 0 1 1.5.1 3.93 3.93 0 0 1 1.34.45 2.48 2.48 0 0 1 1 .93 2.94 2.94 0 0 1 .33 1.58v5.72a4.2 4.2 0 0 0 .08 1c.05.2.22.3.5.3a2.51 2.51 0 0 0 .56-.08Zm-3-5.71a2.31 2.31 0 0 1-.91.37c-.37.08-.76.14-1.17.19s-.83.11-1.24.18a4.08 4.08 0 0 0-1.12.31 2 2 0 0 0-.81.61 1.67 1.67 0 0 0-.32 1.08 1.47 1.47 0 0 0 .18.76 1.54 1.54 0 0 0 .47.51 2.07 2.07 0 0 0 .68.28 4.3 4.3 0 0 0 .82.08 4.43 4.43 0 0 0 1.55-.24 3.27 3.27 0 0 0 1.06-.63 2.51 2.51 0 0 0 .6-.81 2.05 2.05 0 0 0 .2-.83ZM63.6 65.2V67a3.84 3.84 0 0 1 3.62-2 4.86 4.86 0 0 1 1.83.3 3.06 3.06 0 0 1 1.19.84 3.14 3.14 0 0 1 .63 1.28 7.05 7.05 0 0 1 .24 1.58v7.33h-1.84V68.8a2.22 2.22 0 0 0-.6-1.64 2.26 2.26 0 0 0-1.67-.61 3.81 3.81 0 0 0-1.46.26 2.64 2.64 0 0 0-1 .74 3 3 0 0 0-.61 1.11 4.36 4.36 0 0 0-.21 1.39v6.29h-1.84V65.2ZM81.52 76.34v-1.51a2.68 2.68 0 0 1-1.43 1.34 5.43 5.43 0 0 1-2.13.41 5.11 5.11 0 0 1-2.25-.47 4.58 4.58 0 0 1-1.6-1.28 5.71 5.71 0 0 1-1-1.85 8.16 8.16 0 0 1 0-4.49 5.45 5.45 0 0 1 1-1.84 4.62 4.62 0 0 1 1.6-1.25 5 5 0 0 1 2.23-.46 6.25 6.25 0 0 1 .92.08 5.39 5.39 0 0 1 1 .29 4.34 4.34 0 0 1 .93.54 3 3 0 0 1 .75.83V61h1.83v15.34Zm-6.59-4a4.24 4.24 0 0 0 .63 1.32 3 3 0 0 0 1.08.93 3.27 3.27 0 0 0 1.54.34 3.17 3.17 0 0 0 1.57-.36 3.27 3.27 0 0 0 1.06-1 4.11 4.11 0 0 0 .59-1.35 6.54 6.54 0 0 0 .19-1.53 6.33 6.33 0 0 0-.2-1.58 4 4 0 0 0-.61-1.35 3.21 3.21 0 0 0-1.09-.94 3.4 3.4 0 0 0-1.62-.36 3.17 3.17 0 0 0-1.57.37 2.94 2.94 0 0 0-1 1 4.26 4.26 0 0 0-.56 1.38 7.69 7.69 0 0 0-.17 1.6 6 6 0 0 0 .2 1.52M31.45 15.6a5.08 5.08 0 0 0-.85-2.18.32.32 0 0 0 .13-.2.26.26 0 0 0-.23.06l-.09-.12a4.08 4.08 0 0 0-2-1.4.15.15 0 0 0-.18-.15.11.11 0 0 0-.08.09.29.29 0 0 0-.17-.07.31.31 0 0 0 .05.2.12.12 0 0 0-.1.06.15.15 0 0 0 .1.2v1.6a.28.28 0 0 0-.19.09.33.33 0 0 0 .19.09v1.73a.14.14 0 0 0-.11.18.11.11 0 0 0 .11.07.42.42 0 0 0 0 .16.24.24 0 0 0 .15 0h.05a.11.11 0 0 0 .07.11c.05 0 .15 0 .18-.11h1.16a.28.28 0 0 0 .09.2.28.28 0 0 0 .09-.2h1.31c0 .11.14.16.2.13a.13.13 0 0 0 .07-.13.35.35 0 0 0 .18 0 .33.33 0 0 0-.05-.15v-.05a.11.11 0 0 0 .11-.07c0-.06 0-.17-.14-.19m-1.12-2.38a4.94 4.94 0 0 1 1 2.68h-3.27V11.8a3.87 3.87 0 0 1 2.22 1.42"/>
        <path d="M31.29 15.78a4.77 4.77 0 0 0-1-2.51 3.91 3.91 0 0 0-.94-.88 3.33 3.33 0 0 0-1.09-.49h-.06v4h3.1Zm-1.14-2.5a.1.1 0 0 0 0 .1.15.15 0 0 0 .14.09.32.32 0 0 0-.11.19.28.28 0 0 0 .21-.05.12.12 0 0 0 .05.15.09.09 0 0 0 .09 0 4.92 4.92 0 0 1 .66 1.82.33.33 0 0 0-.15 0 .38.38 0 0 0 .06.17H30a.13.13 0 0 0-.07-.12.14.14 0 0 0-.15.06.33.33 0 0 0-.09-.2.28.28 0 0 0-.09.2.14.14 0 0 0-.15-.06.15.15 0 0 0-.08.12h-.97a.38.38 0 0 0 .06-.17.35.35 0 0 0-.18.06v-1.55a.15.15 0 0 0 .14-.07.13.13 0 0 0-.06-.15.33.33 0 0 0 .2-.09.28.28 0 0 0-.2-.09.13.13 0 0 0 .06-.15.16.16 0 0 0-.14-.08v-1.29l.15.05a.43.43 0 0 0 0-.17 3.78 3.78 0 0 1 1.75 1.23"/>
        <path d="M30.68 15.15a.26.26 0 0 0 .13-.12.18.18 0 0 1-.14 0s.11 0 0-.08-.09-.09-.15 0-.43 0-.43-.3a.26.26 0 0 0 .13.1c.18.11.35 0 .37-.11s-.13-.23-.3-.36l-.16-.15c-.05-.11 0-.21-.15-.41v-.17a.5.5 0 0 0 .08.59c.16.17.49.34.48.49a.09.09 0 0 1-.09.07.35.35 0 0 1-.23-.11 5.16 5.16 0 0 1-.35-.42.67.67 0 0 1-.06-.56c.11-.15-.06-.46-.17-.53a.28.28 0 0 0 0-.17.18.18 0 0 1-.1 0c0-.06 0-.07-.08-.08s-.06 0-.07-.07-.05.07-.09.07h-.1a.16.16 0 0 1-.12 0c-.06 0-.06 0-.06.08s0 .07.05.09l.05.06v-.07h.13c.02 0 0 .05 0 .06h-.13v.08c0 .03.05.05.12 0s.21 0 .21 0-.2.16-.24.36a.27.27 0 0 1-.11-.1.6.6 0 0 0-.15-.18.55.55 0 0 0-.14-.12c-.07 0-.07-.07-.07-.14V12.73a.11.11 0 0 0-.09-.06.15.15 0 0 1 0 .06v.06s0-.1-.08-.1-.05-.08-.1 0 0 .07.07.07h-.11v.09-.05h.05v.11a.07.07 0 0 1-.12-.05c-.06.1.05.18.14.14s0 .11 0 .11 0 .06.05.06l.05.08a.68.68 0 0 0 .33.36 1.05 1.05 0 0 0-.24.23c-.05.06-.13.11-.18.08s0 0-.06-.06-.05 0-.06 0a.08.08 0 0 0-.1 0 .09.09 0 0 1 .07 0s0 0 .12 0h-.06s-.06-.05-.1 0-.08.09 0 .13a.07.07 0 0 1 0-.07s.06.07.13 0 0 .11 0 .12a.09.09 0 0 0 .12.05.07.07 0 0 1-.06-.06s0-.08 0-.11.05.07.1 0a.12.12 0 0 0 .05-.07.24.24 0 0 1 .18 0s0-.09.1-.11.11 0 .13 0a.31.31 0 0 1 .08-.13c0 .29.39.28.48.46a.61.61 0 0 0-.33-.06c-.09 0-.26.11-.28.22a.37.37 0 0 0 .17.31h-.26c-.09 0-.11-.15-.21-.11s-.1 0-.09.09a.15.15 0 0 1 .06 0H29s-.13 0-.11.09 0 .07.08 0H29s.05.08.11 0-.06 0-.06 0h.06a.06.06 0 0 0 .08 0h.05s0-.07.11 0l.06-.05h.12c.03 0 0 0 0-.1s-.06-.08-.08-.16.17-.23.29-.21a.67.67 0 0 0 .38.41c.13 0 .19-.1.23-.08v.16c0 .03-.09 0-.14 0s-.09 0-.09.09h.08a.06.06 0 0 0 .11 0s-.09.08 0 .1a.08.08 0 0 0 .05.08s0 0 0-.07 0-.07.06-.09 0 .09 0 .1a.06.06 0 0 0 .1 0s-.05-.09-.05-.13.08 0 .08-.1.09 0 .09-.09a.15.15 0 0 1-.11 0"/>
        <path d="M29.15 13.01 29.15 13.01 29.15 13.01"/>
        <path d="M27 17.43h-.1v-.07a.42.42 0 0 0-.44-.48 7.47 7.47 0 0 1-1.48.34 2 2 0 0 1-.88-.28l-.09.21a.18.18 0 0 0-.18-.17.18.18 0 0 0-.17.17.18.18 0 0 0 .17.18.17.17 0 0 0 .14-.07l-.09.21h.09A2.88 2.88 0 0 0 26 20.33c.21-.06.45 0 .45.21a.18.18 0 0 1-.2.2c-.08 0-.14 0-.14-.1s.17 0 .19-.11 0-.12-.14-.12a.23.23 0 0 0-.24.23.3.3 0 0 0 .32.3.41.41 0 0 0 .44-.47c.07 0 .16 0 .18-.08v-.22h-.07l.06-2.46H27a.15.15 0 0 0 .18-.13.15.15 0 0 0-.15-.15m-2.54.19 1.71 2.45a2.43 2.43 0 0 1-1.71-2.45m1.76 2.21-1.6-2.23h.38l1.24 1.79c0 .17-.05.33-.07.45m-1-2.28a2 2 0 0 0 .35-.1l.82 1.18c0 .16-.05.33-.08.5Zm1.36-.15h-.06c-.08 0-.17 0-.18.13s.06.15.15.16h.05l-.11.7-.69-1a3.63 3.63 0 0 1 .72-.26c.12 0 .14.05.12.28"/>
        <path d="M26.42 12.19 26.42 12.19 26.42 12.19"/>
        <path d="M26.78 12.89c.34 0 .51-.11.51-.22 0-.38-.94-.15-.94-.38 0 0 0-.07.07-.1.47 0 .49-.38.83-.44-.41-.06-.47.26-.64.28a.23.23 0 0 0 .12-.2c-.08.11-.27.12-.37.25a.1.1 0 0 0 0 .07c-.06 0-.1.08-.1.14 0 .36 1 .11 1 .37 0 .09-.16.16-.43.16s-.34-.15-.7-.05c0-.06.12-.18.07-.23a.09.09 0 0 0 .06-.08.09.09 0 0 0-.07 0 .11.11 0 0 0 0-.05.32.32 0 0 0-.08-.06.18.18 0 0 0-.09 0h-.1a.09.09 0 0 0-.07 0 .16.16 0 0 0 0 .1s-.07.09-.1.08 0 .11-.07.11a.82.82 0 0 0-.05.22l-.07-.06c-.06 0-.05-.06-.05-.11s.05-.09.05-.14 0-.06-.07-.05a.06.06 0 0 1 0 .05v.05s0-.08-.06-.08 0-.07-.08 0 0 .05.06.05h-.1v.07s-.05.08 0 .09c0 .08-.13.06-.11 0-.08.09 0 .16.11.12s0 .05 0 .05 0 .06.09.12l-.22.06a.46.46 0 0 0-.16 0c-.06 0-.19.08-.23 0s0 0 0-.06a.08.08 0 0 0-.09 0s0 .05.08.08a.05.05 0 0 1-.05 0s0-.06-.08 0-.1.05-.07.09a.11.11 0 0 1 .05 0s0 .07.12 0-.08.08 0 .1a.07.07 0 0 0 .07.08.07.07 0 0 1 0-.07s0-.06.05-.08a.06.06 0 0 0 .06.06.08.08 0 0 0 .07-.07.06.06 0 0 1 0 .06.06.06 0 0 1 0 .09.15.15 0 0 0 .09-.09.19.19 0 0 0 .1 0V13.39c0 .07.08-.07.16-.12s.09 0 .09-.07h.06a.11.11 0 0 0 .09 0s0 0 0 .06.18-.09.21-.09-.11-.17.26-.15a.18.18 0 0 0 .1 0v.18a.18.18 0 0 1 .1 0h-.07c-.09.05-.09-.14-.19-.1s-.09 0-.08.08a.09.09 0 0 1 .06 0s-.11 0-.09.07 0 .06.08.05a.06.06 0 0 0 .1 0h-.05.13c.06 0 0-.07.06-.08h.14a.15.15 0 0 0-.05-.14s0-.05 0-.09a.53.53 0 0 0 .18 0h.07a.2.2 0 0 1 .16 0v.11c0 .03-.07 0-.11 0a.1.1 0 0 0-.07.08h.06a.05.05 0 0 0 .09 0s-.08.06 0 .08v.06-.13.09s0 .05.08 0v-.1c0-.03.07 0 .07-.09s0 0 .05 0 0 0 0-.07v-.07c0-.07-.07 0-.08 0h-.35c-.16 0 0 0 0 0m-.88-.49h-.07v-.08l.1.05m.06.18h-.05s0 .05-.07 0 0-.05 0-.07v-.05c0-.05 0 0 0 0h.09m.05-.07v-.07l.12.05h-.08"/>
        <path d="M24.7 14a.94.94 0 0 0-.14-.12c-.06 0-.06-.07 0-.13s0-.11 0-.16-.05-.06-.08-.06a.07.07 0 0 1 0 .06.06.06 0 0 0 0 .06s0-.09-.07-.1 0-.07-.09 0 0 .06.07.06h-.11a.06.06 0 0 0 0 .09h.05v.1c0 .01 0 0 0 0s-.13.07-.12 0c-.07.11 0 .18.13.13a.06.06 0 0 0 0 .06s.06.07.13.11.1.09.14 0 .05.14 0 .14h-.23c-.04 0-.21.08-.25 0a.36.36 0 0 0 0-.07.05.05 0 0 0-.05 0 .08.08 0 0 0-.1 0 .06.06 0 0 1 .06 0s0 0 .09.09 0 0-.05 0 0-.07-.09 0c-.05 0-.11.05-.08.1a.08.08 0 0 1 .05-.05s0 .08.13 0-.09.08 0 .11a.08.08 0 0 0 .08.09.07.07 0 0 1 0-.08c.05 0 0-.08.06-.1s0 .08.07.07a.07.07 0 0 0 .07-.08.06.06 0 0 1 0 .06.09.09 0 0 1 0 .1.16.16 0 0 0 .1-.1.23.23 0 0 0 .11 0s0 .05 0 .06v.09c0-.15.09-.09.18-.15.1 0 .25-.12.27-.19h.1c.28 0 .08-.26.54-.18 0 0 .08 0 .11-.05s0 .18 0 .2a.21.21 0 0 1 .1 0h-.09c-.09.07-.1-.14-.2-.1s-.09 0-.08.09a.15.15 0 0 1 .06 0h.05s-.13 0-.1.08 0 .07.07.05h.05s0 .08.1 0-.05 0-.05 0a.07.07 0 0 0 .08 0c.07 0 0-.08.07-.1h.14a.14.14 0 0 0-.05-.16s0-.06 0-.1a.6.6 0 0 0 .21 0 .34.34 0 0 0 .25-.06.2.2 0 0 1 .17 0s0 .09 0 .12-.08 0-.12 0a.1.1 0 0 0-.08.09h.16s-.08.07 0 .09a.06.06 0 0 0 .05.06s0 0 0-.06 0-.06.05-.08 0 .08 0 .09a.06.06 0 0 0 .09 0v-.11c0-.03.08 0 .08-.1s.05 0 .06 0 0-.05-.05-.08a.11.11 0 0 0 0-.09s-.09.06-.09 0 0-.05-.07 0a1.7 1.7 0 0 1-.34 0c.21 0 .52-.06.52-.17s-.11-.17-.43-.17-1.05.12-1.05-.06.14-.08.31-.07h.07c.42.12.9-.1 1.15 0-.29-.22-.54 0-.85-.06.18 0 .25-.05.26-.1-.15.09-.42-.05-.59.06-.23 0-.42 0-.42.14 0 .32.86.14 1.13.14s.33 0 .33.07-.27.1-.42.1a7.15 7.15 0 0 0-1.36 0c0-.07.11-.16.06-.21a.08.08 0 0 0 .07-.08.11.11 0 0 0-.08 0s0 0 0-.06a.21.21 0 0 0 0-.06l-.09-.06h-.23a.16.16 0 0 0 0 .12s-.07.1-.11.09c0 .05-.05.12-.08.13s0 0 .05 0a.62.62 0 0 0 0 .13h-.07Zm.51-.29h.12-.08c-.08 0-.05-.05 0-.08m-.08 0s-.05.05-.08 0 0 0 0-.09a.41.41 0 0 0 .11.06m-.2.4v-.06c0-.06 0 0 0 0l.1.05h-.06v.05L25 14M24.91 15.9H25c.1 0 .09-.09.12-.08.53.07.23-.23.85-.17h.07c.07 0 0 .15 0 .17a.21.21 0 0 1 .11 0h-.09c-.09.07-.1-.14-.2-.1s-.09.05-.08.09h.11s-.13 0-.1.08 0 .06.07 0v.06a.07.07 0 0 0 .11 0h-.05a.06.06 0 0 0 .08 0c.07 0 0-.08.07-.09h.15a.17.17 0 0 0-.06-.16s0 0 0-.1a.59.59 0 0 0 .2.05.31.31 0 0 0 .25-.07.23.23 0 0 1 .18 0s0 .09 0 .12-.08 0-.12 0a.1.1 0 0 0-.08.09h.15s-.08.07 0 .09a.08.08 0 0 0 .05.07s0 0 0-.07.21.12.21.12v.09c0 .01 0 0 0 0s0 .05.09 0v-.11c0-.03.08 0 .08-.09a.05.05 0 0 0 0-.05s.05 0 .06 0 0-.05-.05-.08 0 0 0-.09-.08.06-.09 0 0 0-.07 0a1.84 1.84 0 0 1-.35 0c.19 0 .53 0 .53-.17s-.11-.16-.43-.16-1.32.11-1.32-.07.34-.07.58-.06a.16.16 0 0 0 .08 0c.41.11.85-.16 1.14-.06-.23-.22-.54 0-.85-.05.18 0 .37 0 .39-.08-.15.09-.55-.07-.72 0-.3 0-.67 0-.67.14s1.12.14 1.39.14.33 0 .33.08-.27.09-.42.09a7.51 7.51 0 0 0-1.72 0c0-.07.12-.18.08-.23a.11.11 0 0 0 .06-.09.11.11 0 0 0-.07 0s0 0 0-.06v-.06a.26.26 0 0 0-.09-.06h-.28a.13.13 0 0 0 0 .12s-.08.1-.12.09-.05.12-.08.13a.28.28 0 0 0 0 .09h-.14c-.05 0-.09-.09-.17-.14s-.07-.07-.07-.13V14.92a.11.11 0 0 0-.09-.06s0 0 0 .06A.06.06 0 0 0 24 15s0-.09-.07-.1 0-.07-.09 0 0 .06.07.06h-.1v.09V15v.1c0 .09-.13.07-.12 0-.07.11 0 .18.14.13a.06.06 0 0 0 .05.06.78.78 0 0 0 .21.2s.06 0 .07 0v.13a.8.8 0 0 0-.26 0c-.06 0-.21.08-.25 0s0 0 0-.07h-.05a.08.08 0 0 0-.1 0h.06s0 .06.09.09h.15s0-.07-.08-.05-.11.05-.08.1c0 .05 0 .09.13 0s-.09.08 0 .12a.09.09 0 0 0 .08.1s0-.05 0-.09 0-.08.05-.09 0 .08.07.07a.08.08 0 0 0 .08-.08.06.06 0 0 1 0 .06.1.1 0 0 1 0 .1.15.15 0 0 0 .09-.1.39.39 0 0 0 .11 0s0 .05 0 .06v.09c0-.14.18-.07.27-.13a.19.19 0 0 0 .1 0c.06 0 .17-.07.16-.11m-.04-.69s-.06.06-.08 0 0 0 0-.09a.41.41 0 0 0 .11.06m.06.2h-.06v.06s0 .05-.07 0a.06.06 0 0 1 0-.08v-.05c0-.05 0 0 0 0h.1m.06-.07s-.05-.05-.05-.09a.39.39 0 0 0 .13.05h-.08M31.29 17.62a.09.09 0 0 0 0-.08s-.09.06-.1 0 0 0-.06 0a2 2 0 0 1-.37 0c.22 0 .52 0 .52-.16s-.11-.16-.43-.16-1.31.12-1.31-.06.33-.07.58-.06a.14.14 0 0 0 .07 0c.42.12.89-.19 1.14-.12-.33-.11-.53.08-.85 0 .19 0 .38 0 .39-.09-.14.09-.54-.06-.71 0-.31 0-.68 0-.68.14s1.13.13 1.4.13.33 0 .33.08-.27.1-.42.1a8.17 8.17 0 0 0-1.73 0c0-.07.13-.18.08-.23s.07-.05.07-.08 0 0-.08 0 0 0 0-.06a.17.17 0 0 0 0-.05l-.1-.07a.18.18 0 0 0-.09 0h-.11a.11.11 0 0 0-.08 0 .13.13 0 0 0 0 .11s-.08.1-.11.09 0 .13-.08.13 0 .05.05.05v.09h-.16c-.05 0-.09-.08-.18-.13s-.06-.07-.06-.14v-.15a.21.21 0 0 0 0-.06.07.07 0 0 0-.08 0s0 0 0 .06 0-.1-.06-.1 0-.07-.09 0c0 .05 0 .06.08.06h-.11v.08c0 .03 0 0 0 0h.08c-.05.05 0 .1 0 .11 0 .1-.12.08-.12 0-.06.1.05.18.14.13s0 .06 0 .06.08.13.21.2.05 0 .08-.05a.07.07 0 0 0 0 .06c0 .06.06.12.05.12a.64.64 0 0 0-.19 0c-.06 0-.2.09-.25 0a.26.26 0 0 0 0-.08.07.07 0 0 0-.05 0h-.1a.05.05 0 0 1 .05 0s0 0 .09.08 0-.07-.09 0-.1 0-.07.09 0 0 .05 0c0 .05 0 .08.13 0s-.09.08 0 .11c0 .05.05.09.09.09a.08.08 0 0 1 0-.08s0-.07.06-.09a.07.07 0 0 0 .07.07c.05 0 .08-.05.07-.08s0 0 0 .06h.05a.08.08 0 0 1 0 .1.13.13 0 0 0 .09-.1h.13v.14c0-.14.09-.08.18-.14s.16-.06.16-.11h.09c.09 0 .08-.06.12-.06.53.07.22-.22.84-.17 0 0 .05 0 .07-.05s0 .18 0 .19.09 0 .11.05h-.08c-.1.06-.1-.15-.2-.11s-.1.05-.09.09a.09.09 0 0 1 .07 0s-.12 0-.1.09.31.34.31.34.05.08.11 0h-.06.05a.05.05 0 0 0 .08 0c.06 0 0-.08.06-.09h.15c.01 0 0-.13-.05-.16s0-.06 0-.11a.42.42 0 0 0 .2.05.41.41 0 0 0 .26-.06.24.24 0 0 1 .18 0s0 .08 0 .12-.08 0-.12 0h-.05s-.08 0-.08.08a.11.11 0 0 1 .07 0c0 .06 0 .07.09 0s.04.17.11.17a.06.06 0 0 0 0 .07v-.06s0-.07.06-.09 0 .08 0 .09a.06.06 0 0 0 .09 0v-.12c0-.04.07 0 .08-.09v-.05a.06.06 0 0 0 .06 0c-.06 0 0 0 0-.07M29 17l.12.05h-.08c-.08 0-.04 0-.04-.05m-.08 0s-.05.05-.08 0 0 0 0-.09a.28.28 0 0 0 .11.07m-.12.26v-.05c0-.05 0 0 0 0l.1.05h-.06a.09.09 0 0 0 0 .05v.05c0 .05 0 .06-.08 0a.06.06 0 0 1 0-.08M29.86 18.28l.08.06c.39.11.84-.19 1.08-.12-.31-.11-.51.08-.8 0 .17 0 .36 0 .36-.08s-.51-.06-.68 0c-.16 0-.39 0-.39.13 0 .31.82.13 1.07.13s.23 0 .23.07-.3.09-.44.09a6.62 6.62 0 0 0-1.3 0c0-.07.11-.15.07-.2a.1.1 0 0 0 .06-.08.11.11 0 0 0-.07 0s0 0 0-.06l-.13-.09H28.85a.11.11 0 0 0-.07 0 .1.1 0 0 0 0 .11s-.08.09-.11.08 0 .12-.08.12a.36.36 0 0 0 0 .11h-.09a.32.32 0 0 1-.15-.05c-.07 0-.07-.06-.07-.13v-.15c0-.05 0 0 0 0a.09.09 0 0 0-.08-.06.09.09 0 0 1 0 .06v.06s0-.1-.06-.1 0-.07-.09 0 0 .06.07.06h-.1v.08c0 .08 0 0 0 0-.05.05 0 .09 0 .1s-.12.07-.11 0c-.06.1 0 .17.13.13a.06.06 0 0 0 0 .06s0 0 .11 0h.08v.15h-.18c-.04 0-.2.08-.24 0a.36.36 0 0 0 0-.07.08.08 0 0 0-.09 0h.05l.08.09h-.05c-.05 0 .2.22.2.22s-.1.05-.08.09a.11.11 0 0 1 .05 0c0 .05 0 .08.12 0s-.08.08 0 .11c0 .05 0 .09.08.09a.15.15 0 0 1 0-.08s0-.08.05-.09a.07.07 0 1 0 .13 0 .06.06 0 0 1 0 .06.07.07 0 0 1 0 .09s.08 0 .09-.09a.13.13 0 0 0 .11 0s0 .06 0 .09c0-.13.12-.1.2-.16.09.06.19-.07.22-.14s.07-.07.11-.06c.27 0 .06-.23.49-.15a.27.27 0 0 0 .11-.05v.18l.1.05h-.08c-.09.06-.09-.14-.19-.1s-.09 0-.08.08a.09.09 0 0 1 .06 0s-.12 0-.1.08 0 .06.07.05a.06.06 0 0 0 .1 0h.05a.06.06 0 0 0 .08 0c.06 0 0-.08.06-.09h.14a.16.16 0 0 0-.05-.15s0 0 0-.1a.53.53 0 0 0 .19.05.51.51 0 0 0 .28-.06.28.28 0 0 1 .17 0s0 .08 0 .12-.07 0-.11 0a.08.08 0 0 0-.05 0 .14.14 0 0 0-.1.08.19.19 0 0 1 .08 0c0 .05.05.07.09 0s-.09.07-.06.09a.05.05 0 0 0 0 .07V19s0-.06.07-.08 0 .08 0 .09 0 .05.08 0v-.11c0-.03.07 0 .09-.09s0 0 0-.05 0 0 .06 0 0-.05 0-.07a.12.12 0 0 0 0-.08s-.1.06-.09 0h-.4s.53 0 .53-.17 0-.15-.32-.14-1 .12-1-.06.19-.07.29-.07m-.92 0 .12.05h-.08c-.08 0-.05-.05 0-.08m-.07 0h-.08c-.03 0 0 0 0-.08l.11.05m-.12.25v-.05c0-.05 0 0 0 0h.1-.06c-.06 0 0 0 0 .05v.05a.06.06 0 0 1-.07 0 .07.07 0 0 1 0-.08"/>
        <path d="M29.56 19.56a.1.1 0 0 0 .07.05c.39.11.85-.19 1.08-.12-.31-.1-.5.08-.8 0 .18 0 .36 0 .37-.08-.14.08-.52-.06-.68 0s-.23.09-.23.18.15.15.43.13.58 0 .58 0-.2.13-.46.13a2.78 2.78 0 0 0-1 0c0-.08.13-.19.09-.24a.09.09 0 0 0 .06-.07.11.11 0 0 0-.07 0s0 0 0-.05a.14.14 0 0 0 0-.06l-.09-.05h-.25a.13.13 0 0 0 0 .11s-.07.09-.1.08c0 .06 0 .12-.08.12a.65.65 0 0 0 0 .24c-.06-.06-.15-.21-.21-.24s-.06-.06-.06-.12v-.15s-.05-.06-.07 0v.05s0-.09-.06-.09 0-.07-.09 0 0 .06.06.06h-.1v.08c0 .03 0 0 0 0v.1c0 .01 0 0 0 0s-.11.07-.11 0c-.06.1 0 .17.13.12a.05.05 0 0 0 0 .06.28.28 0 0 0 .11.19.13.13 0 0 0 .14.1s.05.09 0 .09a.65.65 0 0 0-.19 0H27.82c-.02 0 0 0 0-.06a.08.08 0 0 0-.09 0 .05.05 0 0 1 .05 0s0 .05.08.08a.05.05 0 0 1-.05 0s0-.06-.07 0-.09.05-.07.09a.11.11 0 0 1 .05 0s0 .08.11 0-.08.08 0 .1c0 .05.05.08.08.08a.06.06 0 0 1 0-.07v-.08c0-.02 0 0 0 0s0 .06.07.06.07-.05.06-.07a.06.06 0 0 1 0 .06.08.08 0 0 1 0 .09.12.12 0 0 0 .08-.09.19.19 0 0 0 .1 0v.13c0-.12.08-.07.16-.12s.12 0 .12-.08a.6.6 0 0 0 .08-.22c.11 0 .15-.09.26-.1a.38.38 0 0 0 0 .16c0 .06.07.12.1.14h-.08c-.08 0-.09-.13-.18-.1s-.09.05-.08.08a.09.09 0 0 1 .06 0s-.12 0-.09.08 0 .05.07 0H29a.06.06 0 0 0 .1 0h-.05a.06.06 0 0 0 .07 0c.07 0 0-.08.07-.09h.1a.11.11 0 0 0-.05-.14s.05-.21-.1-.3h.33a.38.38 0 0 1 .16.08c-.06 0-.05 0-.08.06l-.06-.06a.08.08 0 0 0-.1 0 .08.08 0 0 1 .07 0s-.1 0-.09 0v.07h.08s-.07 0-.06.07 0 .06 0 .07c.06 0 0-.08 0-.1s.06.05.11 0 0 0 .05 0 0-.05 0-.08 0 0 .07 0-.11 0-.06-.06.08-.06.05-.09-.16-.08-.17-.15h.1c.35 0 .56-.09.56-.2s-.1-.12-.35-.1-.68.06-.68 0 .06-.09.14-.11m-.81 0h-.07c-.02 0 0 0 0-.08l.1.06m.06.17h-.06s0 .05-.07 0a.05.05 0 0 1 0-.07v-.05c0-.05 0 0 0 0l.09.05m.05-.06s-.05-.05 0-.08l.11.05h-.07M22.35 15.8a1.7 1.7 0 0 0-.35-1.11c-.38-.44-1.64-1.83-2-2.28.1 0 .22 0 .46.24l.8.78A7.89 7.89 0 0 1 22.63 11c.11-.12.22-.24.34-.35a2.62 2.62 0 0 0-.81.35 1.35 1.35 0 0 0-.37-1c.1-.54 0-1.19-1.2-2 .62.15 1 .71 1.46.28-.42 0-.43-.94-2-1.71.59 0 1.05.93 1.73.4-.65-.08-.86-1.22-2-1.57.4 0 .81.24 1.15-.23-.4.1-.63-.27-1.06-.3a1.44 1.44 0 0 0-.05-1.18A1.48 1.48 0 0 0 19 4c0-.27-.32-.29-.58-.27 0 .12.07.29-.06.32A10.16 10.16 0 0 0 17 4.5a7.37 7.37 0 0 0-1.32.7c-.1.08-.2-.1-.26-.18-.19.16-.37.37-.24.57a1.66 1.66 0 0 0-.89.33 1 1 0 0 0 .71.86c-.72.71-.07 1.36-.7 2 .88 0 .73-1.2 1.18-1.37 0 .87-.53 1-.53 2 0 .5.29 1 0 1.37.74-.2.54-1.84 1-2.33a1.32 1.32 0 0 1-.06.83c-.26.76 0 1.81-.37 2.15.66-.07.81-1 1.25-1.54a25.52 25.52 0 0 1-1.67 4.38C13.8 15.93 13 18 11.86 18a.87.87 0 0 1-.91-1c0-2 3.38-3.33 3.38-5.43a1.25 1.25 0 0 0-1.23-1.29 1.73 1.73 0 0 0-1 .43 1 1 0 0 0-.4-.09c-1.19 0-.88 2.15-1.92 2.13.42.23 1.13-.22 1.55-.82-.18 1.39-2.18 1-2 2.69.28-1.31 3.48-1.12 3.48-3.1a.75.75 0 0 0-.28-.56 1.19 1.19 0 0 1 .68-.21.75.75 0 0 1 .73.84c0 1.76-3.36 3.25-3.36 5.41a1.56 1.56 0 0 0 .28.91.57.57 0 0 1-.69-.19c0 .56.78.91 1.28.63a1.36 1.36 0 0 0 .35.07 1 1 0 0 1-.93.52c.82.65 2.26-.2 2.18-.94a11.62 11.62 0 0 0 1.54-2c0 .14-.06.27-.08.41a7 7 0 0 0-1 2.82c-.11 1-.6 1.83-1.28 1.83-.15 0-.39-.19-.51-.1s0 .38 0 .56-.53.55-.53 1.39c0 .38.23.84.14 1.09a1.48 1.48 0 0 0 .62-.94c.24 1.12-.47 1.07 0 2.07a.41.41 0 0 1 .59-.33c.2.14.11.23 0 .38s-.29.89.39.85c-.12-.08-.13-.28.2-.35s.61.12 1.11.12c.3 0 .39-.4.63-.4s.25.19.16.33c.39-.11.47-.32.47-.54s-.18-.36 0-.45.6 0 .42.38a.44.44 0 0 0 .36-.5c0-.28-.33-.45-.64-.4-.05-.18-.32-.28-.56-.28-.55 0-.47.44-.84.44-.61 0-1.2-.79-1.2-2.11 0-.71.77-.89 1.31-1.13a4.58 4.58 0 0 0 2-1.76 4.27 4.27 0 0 0 .41-2.54 1.61 1.61 0 0 1 .85 1.53.93.93 0 0 1-.55.94c-.21.1-.27.06-.3.18a.26.26 0 0 0 .17.28c.27.14.22.41.29.69a2.2 2.2 0 0 0 .76 1.07 3.59 3.59 0 0 0 0-.83c.58.29.11 1.46 1.25 1.46a.29.29 0 0 1 0-.47c.12 0 .27.08.49.38s.16.29.7.29.3-.19.58-.19.26.33.11.57a.61.61 0 0 0 .46-.89.46.46 0 0 1 .71.33.56.56 0 0 0-.32-.95.34.34 0 0 0-.46-.23 4.82 4.82 0 0 0-.54 0c-.2 0-.31.29-.54.29-.71 0-2.12-1.29-2.12-1.85s1.35-.89 1.35-1.76c0-1.14-1.12-1.52-2-2.25a1.89 1.89 0 0 1 1.86-.19c.06-.32.27-.24.34-.78.2.47-.07.87.14 1.07.15-.23.56-.2.53-.79.13.37-.15.94.13 1.19 0-.31.23-.36.34-.36s.22.08.22.26c0 .45-.55.33-.55.84 0 .21.27.29.27.43a.3.3 0 0 1-.49.17.57.57 0 0 0 .5.37.74.74 0 0 0 .62-.45c.13.32 0 .68-.21.73.25.12.84 0 .77-.74.33.05.5.28.31.68.27-.07.51-.2.51-.49s-.22-.38-.18-.68-.31-.49-.36-.83m-5.98-9.41c-.31 0-.3-.27-.85-.4a9.4 9.4 0 0 0 1.3-.43c.08.35-.06.79-.45.83m2.18 2.31a.6.6 0 0 1-.78-.41c-.08-.24-.14-.43-.05-.53a.37.37 0 0 0 .12-.51c-.11-.24-.37-.12-.65-.06.13-.23.14-.4 0-.37s-.21.36-.33.32-.05-.24-.05-.34.1-.2.24-.26l1.15-.44c.15 0 .25-.08.35 0s.26.17.2.28-.29-.14-.46 0 0 .22.23.3c-.24.14-.51.24-.42.5s.2.28.44.28.22.19.33.41a.57.57 0 0 1-.28.81m.07-3.2a.62.62 0 0 1-.9-.29A8.4 8.4 0 0 0 19 4.69c-.3.47-.1.68-.34.87M14.82 3.76a.22.22 0 0 0-.44 0 .22.22 0 1 0 .44 0M14.75 3.17a.22.22 0 0 0-.22-.17.22.22 0 0 0 0 .44.22.22 0 0 0 .22-.22M14.87 2.91a.22.22 0 1 0-.22-.22.22.22 0 0 0 .22.22M15.46 2.87a.22.22 0 1 0-.22-.22.22.22 0 0 0 .22.22M18 2.46a.21.21 0 0 0 .31 0 .22.22 0 1 0-.31-.31.21.21 0 0 0 0 .31M17.91 2a.21.21 0 0 0 0-.31.23.23 0 0 0-.31 0 .22.22 0 0 0 .31.31M17.33 1.9a.23.23 0 0 0 0-.31.22.22 0 0 0-.32 0 .22.22 0 0 0 0 .31.23.23 0 0 0 .31 0M16.83 2.27a.23.23 0 0 0 0-.31.22.22 0 1 0-.31.31.23.23 0 0 0 .31 0M15.42 2l.18.38.22-.27a4 4 0 0 1 0 .48.27.27 0 0 0 .28.28.28.28 0 0 0 .28-.28.27.27 0 0 0-.15-.24A2.93 2.93 0 0 1 16 2h.38l-.15-.39-.28.23v-.41l-.38.14.26.31Z"/>
        <path d="M18 2.65a.58.58 0 0 1 .13.3.5.5 0 0 1-.23-.2v.51a.43.43 0 0 1 .19-.19c0 .34-.16.48-.27.5a.22.22 0 0 1-.26-.17c0-.15.1-.24.23-.11 0-.31-.23-.3-.33-.17a.46.46 0 0 0-.19-.66.47.47 0 0 0 .11.67c-.2-.1-.38.08-.2.3 0-.2.21-.15.25 0s-.1.31-.32.37-.41-.11-.49-.28a.44.44 0 0 1 .41.09l-.15-.5a.49.49 0 0 1-.3.3 1.69 1.69 0 0 1 .1-.41l-.6.25a1.29 1.29 0 0 1 .37.25.54.54 0 0 1-.43 0l.25.46a.45.45 0 0 1 .23-.35c.06.18.13.4-.16.55a.37.37 0 0 1-.49 0c-.08-.14 0-.29.18-.18 0-.29-.28-.28-.35-.07a.49.49 0 0 0-.39-.56.45.45 0 0 0 .32.6c-.17 0-.35.15-.12.36 0-.19.16-.21.25-.09a.23.23 0 0 1-.08.31c-.09.06-.28.06-.53-.17a.45.45 0 0 1 .26 0l-.32-.4a.87.87 0 0 1 0 .31.52.52 0 0 1-.13-.3l-.24.22a3.09 3.09 0 0 1 .83.82 12 12 0 0 1 1.34-.67 11.91 11.91 0 0 1 1.43-.46 3 3 0 0 1 0-1.16ZM44.24 22a.95.95 0 1 0 .95-.95.95.95 0 0 0-.95.95m.24 0a.7.7 0 0 1 .71-.7.7.7 0 0 1 .7.7.7.7 0 0 1-.7.71.71.71 0 0 1-.71-.71M40.69 22.9a.54.54 0 0 0-.09.82.79.79 0 0 0 .48.26.83.83 0 0 0 .54-.07.58.58 0 0 0 .3-.4.69.69 0 0 0-.62-.73.8.8 0 0 0-.61.12m.43.84c-.27 0-.46-.25-.42-.45a.27.27 0 0 1 .13-.19.55.55 0 0 1 .42-.08.47.47 0 0 1 .43.4.45.45 0 0 1-.56.27M35.46 9.57a.62.62 0 0 0-.19.86.63.63 0 0 0 .88 0 .76.76 0 0 0 .29-.48.56.56 0 0 0-.1-.38.52.52 0 0 0-.34-.16.69.69 0 0 0-.54.16m-.05.55a.48.48 0 0 1 .2-.36.46.46 0 0 1 .39-.11.31.31 0 0 1 .18.09.26.26 0 0 1 0 .2.45.45 0 0 1-.19.32.4.4 0 0 1-.54 0 .28.28 0 0 1-.05-.16M39.58 21.32a.76.76 0 0 0-.23.57.79.79 0 0 0 .21.56.52.52 0 0 0 .38.17.54.54 0 0 0 .39-.16.76.76 0 0 0 .23-.57.81.81 0 0 0-.15-.51.57.57 0 0 0-.44-.24.51.51 0 0 0-.39.16m.36 1.08a.35.35 0 0 1-.21-.1.57.57 0 0 1-.14-.41.56.56 0 0 1 .16-.4.32.32 0 0 1 .25-.07.45.45 0 0 1 .36.51.56.56 0 0 1-.16.4.32.32 0 0 1-.22.09M34.93 13.64a.53.53 0 0 0-.32.28.68.68 0 0 0 .4.87.84.84 0 0 0 .62.05.53.53 0 0 0 .33-.7.8.8 0 0 0-.42-.45.87.87 0 0 0-.61 0m.19.93c-.25-.12-.38-.36-.29-.55a.32.32 0 0 1 .18-.15.57.57 0 0 1 .42 0 .53.53 0 0 1 .3.31.33.33 0 0 1 0 .24.31.31 0 0 1-.18.15.55.55 0 0 1-.43 0"/>
        <path d="M44.91 12.67c.31.85.93 1.15 1.39.93-1-.12-.19-1.91-1.54-1.91a.78.78 0 0 0-.22 0 1.1 1.1 0 0 0-.88-.34 1.67 1.67 0 0 0-1.55 1.69c0 2.45 2.84 2.66 2.84 4.83a1 1 0 0 1-1 1c-.48 0-.86-.54-1.27-1.38a10.13 10.13 0 0 0-1-1.52.86.86 0 0 0 .42.15.59.59 0 0 0 .4-.15.51.51 0 0 0 .16-.38.82.82 0 0 0-.23-.56.84.84 0 0 0-.56-.26.58.58 0 0 0-.39.14.61.61 0 0 0-.17.39.7.7 0 0 0 .05.25 5.2 5.2 0 0 1-1.18-2 1.93 1.93 0 0 1 .58-1.12l.11.06.09-.09c.11-.13.35-.39.84-.91l.12-.13-.31-.25a4.2 4.2 0 0 0 .21-.6c.09.4.29.65.57.57-.18-.41.19-.95 0-1.95.23.38.56.59.81.52-.64-.56.18-1.34-.64-2.55a.48.48 0 0 0 .57-.1c-.75-.1-.41-1.06-1.72-1.4.32-.06.51-.25.46-.42-.34.25-.65-.47-1.79-.45a1.65 1.65 0 0 0-.91-1.09 1.46 1.46 0 0 1-.08.87L35.31.88c-.11-.1-.17-.13-.2-.09s0 .11 0 .18l3.19 4-.72.27a.44.44 0 0 0-.28.42 6.36 6.36 0 0 0-1.3.89c-.2.18-.35.22-.18.62.07.15-.14.53.32.25s1-.55 1.1-.32-.29.29-.52.38-.49.27-.45.36.22 0 .23.09a.21.21 0 0 0 .18.2c.09 0 .21-.2.29-.13s0 .5-.11.61a.73.73 0 0 0 .6-.66c0-.27.08-.33.14-.37s.12.29 0 .48c.2 0 .39-.29.37-.76a.53.53 0 0 1 .26-.13c.13 0 .37.33.71.33a1.06 1.06 0 0 0 1-.75.7.7 0 0 0-.09-.52.89.89 0 0 1 .3.68c0 .89-1.58 1.31-2.23 1.93a.23.23 0 0 0-.07.07l-.74-.29v.16a.51.51 0 0 0-.05.14c-.07.26-.24.79-.34 1.09v.13h.07a4.13 4.13 0 0 0-.87 1.91c-.18-.18-.35-.33-.54-.49a.64.64 0 0 0 0-.2.7.7 0 0 0-.16-.53.55.55 0 0 0-.35-.17.5.5 0 0 0-.36.13l-.06.07-.08-.06a5.74 5.74 0 0 1-.73-.61.38.38 0 0 0-.33-.14H33c-.11 0-.17.08-.29.19l-.55.43a3.51 3.51 0 0 1 .33.34l.09.11.24-.19a.4.4 0 0 1 .28-.08.43.43 0 0 1 .32.21c.07.1.67.89 1.17 1.44l-.16.06a2.54 2.54 0 0 1-.91.05c-.21 0-.25-.07-.4.16a2.22 2.22 0 0 1-.19.27c-.08.09-.13.19 0 .44a20.06 20.06 0 0 1 .94 1.79 1 1 0 0 0 .74.65 5.18 5.18 0 0 1 1 .56v-.34a2.23 2.23 0 0 0-.56-.27c-.12-.05-.15-.1 0-.1a3.62 3.62 0 0 1 .85.27 2.47 2.47 0 0 0-.59-.9.79.79 0 0 0-.6 0 .14.14 0 0 1-.14.16.14.14 0 0 1-.14-.18c0-.1.18-.13.15-.32s-.26-.22-.41-.23c-.22-.31-.46-.76-.57-.94s0-.28 0-.34.56.07 1.31.12l.94.05a2.07 2.07 0 0 0 1.67 2A2.07 2.07 0 0 1 39 16.67c-2.44 0-2.82.91-2.82 1.8s.86 1 .86 1.73-2 .94-2.67 1a1.74 1.74 0 0 0-1.07.45l-1 .95a1.29 1.29 0 0 0 .39 0l.35-.44c.1-.15.17-.28.24-.27s0 .13-.06.29l-.28.48c1.2.08 1.28-.37 1.28-.55s-.3-.31-.13-.42.32 0 .46.12.18.3.52.18c0 0 2.62-1.09 3-1.24s.21-.27 0-.41a.88.88 0 0 1-.23-.7c0-.79.48-1 1.33-1v.38c0 1.24 1.87 2.45 2.37 2.45.23 0 .53-.17.55.57a6.78 6.78 0 0 1 0 1.57 1.17 1.17 0 0 1-.66 1c-.38.27-.74 1.11-.9 1.28.17.12.35.13.49-.28a1.22 1.22 0 0 1 .4-.66c-.15.37-.26.92-.33 1.08.48.09 1.25-.35 1.25-.69s-.27-.31-.27-.53a.27.27 0 0 1 .27-.21.38.38 0 0 1 .35.22c.22-.11.35-.32.34-.81v-.6.08a.59.59 0 0 0 .44.24.78.78 0 0 0 .52-.14.81.81 0 0 0 .36-.5s0-.09 0-.12a.53.53 0 0 0-.09-.3.51.51 0 0 0-.35-.23.83.83 0 0 0-.6.13.87.87 0 0 0-.35.46c0-.67-.09-1.31-.07-1.56s0-.55-.08-.61-.27.16-.45.16a1.23 1.23 0 0 1-.74-1c0-.54.58-1.23.55-2 0-.23.14-.35.23-.14a3.56 3.56 0 0 0 .52.87c-.15.92.86 1.81 1.7 1.15-.42.06-.7-.31-.88-.67h.35a.9.9 0 0 0 1.46-.57 1 1 0 0 1-.74.3 1.47 1.47 0 0 0 .53-1.19c0-2.34-2.83-2.61-2.83-4.73a1.31 1.31 0 0 1 1.17-1.3.77.77 0 0 1 .44.14 1 1 0 0 0-.27.81c.08 1.68 2.82 1.6 2.85 2.41.31-1.22-1.73-.84-1.81-2.48m-7.27-6.39c.13-.26 0-.64.46-.64.23 0 .43.23.71.31a2.77 2.77 0 0 0-1.17.33m-2.51 5.14a.49.49 0 0 1-.15.34.27.27 0 0 1-.18.07c-.15 0-.28-.2-.28-.41a.45.45 0 0 1 .15-.33.24.24 0 0 1 .18-.08.26.26 0 0 1 .17.04.44.44 0 0 1 .11.34m8.1 11.79a.61.61 0 0 1 .25-.35.6.6 0 0 1 .42-.09.27.27 0 0 1 .2.13.33.33 0 0 1 0 .23.58.58 0 0 1-.26.35.44.44 0 0 1-.61 0 .29.29 0 0 1 0-.23m-1.7-7.82a.28.28 0 0 1 .09-.22.3.3 0 0 1 .22-.08.65.65 0 0 1 .39.19.6.6 0 0 1 .16.4.32.32 0 0 1-.09.22.29.29 0 0 1-.22.07.57.57 0 0 1-.39-.18.56.56 0 0 1-.16-.4m-4.69-5.28c.13-.41.38-1.22.38-1.23l.53.21h-.07a1.33 1.33 0 0 0-.37.26.45.45 0 0 0 .32 0l.08-.05-.23.57v-.05a.59.59 0 0 0-.24-.23.43.43 0 0 0 .28.5c.26.13.41.14.47 0A.14.14 0 0 0 38 10a.19.19 0 0 0 0-.12.22.22 0 0 0-.25 0 .31.31 0 0 1 .08-.29.25.25 0 0 1 .42 0 .72.72 0 0 1 .51-.65.71.71 0 0 1-.17.81.28.28 0 0 1 .29.09.25.25 0 0 1 0 .22.34.34 0 0 1-.2.23.21.21 0 0 0-.17-.18.16.16 0 0 0-.17.08q-.1.19.27.39a.4.4 0 0 0 .59-.13.48.48 0 0 0-.34.08l-.09.06.38-.7v.08a.61.61 0 0 0 .14.27.86.86 0 0 0 .05-.26.45.45 0 0 0 0-.2v-.09l.77.45h-.09a.64.64 0 0 0-.39.24.54.54 0 0 0 .31 0h.07l-.42.68v-.13a.5.5 0 0 0-.09-.31.51.51 0 0 0-.06.22.41.41 0 0 0 .24.36c.24.14.4.16.47 0A.15.15 0 0 0 40 11a.2.2 0 0 0-.23-.06.37.37 0 0 1 .09-.28.32.32 0 0 1 .14-.16.3.3 0 0 1 .23.22.72.72 0 0 1 .61-.56 1 1 0 0 1 0 .17.73.73 0 0 1-.33.59.26.26 0 0 1 .24.12.33.33 0 0 1 0 .14.24.24 0 0 1 0 .08.35.35 0 0 1-.21.21.22.22 0 0 0-.16-.19.15.15 0 0 0-.17.06c-.06.11 0 .23.27.39a.42.42 0 0 0 .57 0 .55.55 0 0 0-.31-.09h-.06l.38-.49v.1a.43.43 0 0 0 .13.29 1.63 1.63 0 0 0 0-.35.31.31 0 0 0 0-.1V11l.45.35-.88.95Zm3.87 9.68a.44.44 0 0 1-.59.17.44.44 0 0 1 0-.62.39.39 0 1 1 .62.45M41.81 18a.39.39 0 1 1-.62-.44.44.44 0 0 1 .59-.18.43.43 0 0 1 0 .62M28.58 25.48h-.2v-1.1a7.22 7.22 0 0 1-1.68-.27v1.4a.66.66 0 0 0-.21 0 .65.65 0 0 0-.65.65 1.23 1.23 0 0 0 .32.75c.08-.18.15-.33.25-.33s.11 1 .7 1a.41.41 0 0 0 0 .16.46.46 0 1 0 .91 0 .41.41 0 0 0 0-.16c.59 0 .49-1 .69-1s.17.14.26.33a1.23 1.23 0 0 0 .32-.75.65.65 0 0 0-.65-.65m-1 2.51a.25.25 0 0 1-.26-.25.26.26 0 1 1 .51 0 .25.25 0 0 1-.25.25m1.37-1.45a.33.33 0 0 0-.26-.2c-.39 0-.24 1-.71 1a.28.28 0 0 1-.31-.27c0-.15.1-.19.1-.31s-.09-.16-.19-.16-.2 0-.2.16.1.16.1.31a.28.28 0 0 1-.31.27c-.47 0-.31-1-.71-1a.33.33 0 0 0-.26.2 1.09 1.09 0 0 1-.12-.41.45.45 0 0 1 .45-.45c.53 0 .41.71.66.71a.17.17 0 0 0 .19-.17c0-.2-.36-.4-.36-.69s.26-.54.56-.77c.29.23.56.48.56.77s-.37.49-.37.69a.17.17 0 0 0 .19.17c.25 0 .13-.71.66-.71a.45.45 0 0 1 .45.45 1.09 1.09 0 0 1-.12.41M25.27 5c-.18.34-.33.54-.31.8s.3.44.43.71c.11-.31.31-.54.29-.78s-.36-.55-.41-.73M29.79 5c.18.34.33.54.31.8s-.3.44-.43.71c-.11-.31-.31-.54-.29-.78s.36-.55.41-.73M22.66 4.85a.3.3 0 0 0 .3-.31.29.29 0 0 0-.3-.3.3.3 0 0 0-.31.3.31.31 0 0 0 .31.31M22.86 5.29a.31.31 0 1 0-.61 0 .31.31 0 0 0 .61 0M23 6a.31.31 0 1 0-.61 0A.31.31 0 0 0 23 6M24.35 3.39a.31.31 0 1 0 0-.61.31.31 0 0 0 0 .61M23.59 3.62a.3.3 0 0 0 .31-.3.31.31 0 1 0-.62 0 .3.3 0 0 0 .31.3M23 4.15a.31.31 0 0 0 .31-.31.3.3 0 0 0-.31-.3.29.29 0 0 0-.3.3.3.3 0 0 0 .3.31M25.15 3.46a.3.3 0 0 0 .31-.3.31.31 0 0 0-.62 0 .3.3 0 0 0 .31.3M25.91 3.68a.3.3 0 0 0 .31-.3.31.31 0 1 0-.62 0 .3.3 0 0 0 .31.3M26.62 4a.31.31 0 0 0 .31-.31.3.3 0 0 0-.31-.3.29.29 0 0 0-.3.3.3.3 0 0 0 .3.31M32.09 4.54a.31.31 0 1 0 .61 0 .31.31 0 0 0-.61 0M32.49 5a.31.31 0 0 0-.3.31.31.31 0 0 0 .61 0 .31.31 0 0 0-.31-.31M32.34 5.72A.3.3 0 0 0 32 6a.29.29 0 0 0 .3.3.3.3 0 0 0 .31-.3.31.31 0 0 0-.31-.31M30.7 3.39a.31.31 0 1 0-.31-.31.31.31 0 0 0 .31.31M31.46 3.62a.3.3 0 0 0 .31-.3.31.31 0 0 0-.62 0 .3.3 0 0 0 .31.3M32.06 4.15a.3.3 0 0 0 .3-.31.29.29 0 0 0-.3-.3.3.3 0 0 0-.31.3.31.31 0 0 0 .31.31M29.9 3.46a.29.29 0 0 0 .3-.3.3.3 0 0 0-.3-.31.31.31 0 0 0-.31.31.3.3 0 0 0 .31.3M29.14 3.68a.3.3 0 0 0 .31-.3.31.31 0 1 0-.62 0 .3.3 0 0 0 .31.3M28.12 3.71a.31.31 0 0 0 .31.31.31.31 0 0 0 0-.62.31.31 0 0 0-.31.31M27 5.37h.34V4.06A1.35 1.35 0 0 1 27 4ZM28.05 4a1.35 1.35 0 0 1-.34.11v1.26h.34ZM27.33 2.5v-.77a1 1 0 0 0-.75.77ZM27.73 2.5h.74a1 1 0 0 0-.74-.77ZM26.59 2.88a1 1 0 0 0 .94.75 1 1 0 0 0 .93-.75ZM28.05 1.6a1.08 1.08 0 0 1-.42-.67 1.2 1.2 0 0 1 .7.44V.31a1.27 1.27 0 0 1-.7.45A1.55 1.55 0 0 1 28 0h-1a1.61 1.61 0 0 1 .4.76 1.27 1.27 0 0 1-.7-.45v1.06a1.2 1.2 0 0 1 .7-.44 1.08 1.08 0 0 1-.4.67ZM29.18 22.63A18.88 18.88 0 0 1 26 21.49a.82.82 0 0 0-.22-.65.83.83 0 0 0-.61-.3.72.72 0 0 0-.29.06 4.83 4.83 0 0 1-.44-.46 5 5 0 0 1-1-1.64 5.81 5.81 0 0 1-.28-1.09 1 1 0 0 1-1 .68c0-.06 0-.16-.06-.17-.16.17-.37.35-.92.16a9.35 9.35 0 0 0 .36 1.25A7.33 7.33 0 0 0 23 21.64a7.25 7.25 0 0 0 .62.62.49.49 0 0 0 0 .12 1 1 0 0 0 .53.74.76.76 0 0 0 .79-.09 8.85 8.85 0 0 0 1.71.66 7.67 7.67 0 0 0 2 .31 3.49 3.49 0 0 0 1.7-.6 4.58 4.58 0 0 0 .65-.49l.06-.07a5.26 5.26 0 0 1-1.78-.21m-7.29-3.41a.77.77 0 0 1 0-.58.68.68 0 0 1 .39-.37.7.7 0 0 1 .55 0 .77.77 0 0 1 .4.43.93.93 0 0 1 .05.29.64.64 0 0 1-.06.28.72.72 0 0 1-.94.37.77.77 0 0 1-.4-.43m1.16 2-.24-.34.42-.29-.24-.33-.41.29-.24-.33 1.15-.81.24.33-.41.3.23.33.41-.3.24.34Zm2.6-.06-.1-.07a.36.36 0 0 0-.51 0 2.66 2.66 0 0 0-.23.24l-.1.12.07.05c.2.16.23.33.17.44a.13.13 0 0 1-.1.07.53.53 0 0 1-.38-.09h-.07V22.03l-.06.08a.8.8 0 0 0-.12.35.22.22 0 0 0 0 .08.37.37 0 0 0 .19.2h.05l.31.19a.56.56 0 0 1-.53 0 .81.81 0 0 1-.43-.58 1.57 1.57 0 0 1 .29-.81v-.05a2.34 2.34 0 0 1-.14-.27 1.59 1.59 0 0 1 .3.06 1.56 1.56 0 0 1 .9-.54.66.66 0 0 1 .48.24.7.7 0 0 1 .17.37l-.17-.13m.54 1.78a.42.42 0 1 1 .42-.42.42.42 0 0 1-.42.42m1.81.55a.38.38 0 1 1 .38-.37.38.38 0 0 1-.38.37"/>
        <path d="M22.89 19a.31.31 0 0 0 0-.13.32.32 0 1 0-.59.23.29.29 0 0 0 .17.19.33.33 0 0 0 .24 0 .3.3 0 0 0 .21-.28M23.09 12.85a.3.3 0 0 0-.41.14.34.34 0 0 0 0 .24.35.35 0 0 0 .15.17.32.32 0 0 0 .23 0 .29.29 0 0 0 .18-.16.28.28 0 0 0 0-.15.31.31 0 0 0-.16-.27"/>
        <path d="M31.52 12.1 31.36 12.14 31.44 12.25 31.52 12.1z"/>
        <path d="m33.34 15-.13-.26a.44.44 0 0 0-.08.11.21.21 0 0 0 0 .06h.08l.17.06M33.22 16.76s.05 0 .05-.07v-.08h-.11v.07a.12.12 0 0 0 0 .07M26.11 10.14a.31.31 0 0 0-.25 0 .38.38 0 0 0-.2.17.31.31 0 0 0 0 .25.3.3 0 0 0 .43.18.31.31 0 0 0 .21-.3.52.52 0 0 0 0-.11.3.3 0 0 0-.17-.18"/>
        <path d="M34 15.94a1.37 1.37 0 0 1-.4-.47l-.74-.27h-.1l-.58.16-.1-.4.57-.16a.22.22 0 0 0 .06-.07l.31-.4c-.14-.26-.28-.5-.38-.66a.93.93 0 0 1-.13-.4l-.53.27.23.47-.35.18-.41-.84 1.26-.62v.11l.1-.15.12-.15a7.07 7.07 0 0 0-.85-1.18 6.37 6.37 0 0 0-1.31-1.13 1 1 0 0 0 .52-.81.74.74 0 0 0-.27-.57 7.38 7.38 0 0 1 1.17-2.37l-.87-.36a1.38 1.38 0 0 1 .19 1 1.11 1.11 0 0 1-.48-.66 4.18 4.18 0 0 1-.32.94.76.76 0 0 1 .7-.06 1 1 0 0 1-1.09.36c-.31-.07-.61-.24-.6-.48a.29.29 0 0 1 .31-.29c.18 0 .2.31.14.43.24-.14.5-.86.12-1s-.59.33-.69.66c-.06-.39-.22-.76-.53-.74s-.27.76-.13 1c0-.26.17-.4.29-.39s.24.09.22.32-.36.38-.74.38a.94.94 0 0 1-1.07-.82 1.33 1.33 0 0 1 .77.46 4.58 4.58 0 0 1 0-1.17 1.27 1.27 0 0 1-.76.46 1.36 1.36 0 0 1 .63-.82h-1.54a1.37 1.37 0 0 1 .63.81 1.19 1.19 0 0 1-.74-.51 4.58 4.58 0 0 1 0 1.17 1.35 1.35 0 0 1 .76-.46 1 1 0 0 1-1.08.82c-.38 0-.71-.14-.74-.38s.12-.31.22-.32.26.13.29.39c.14-.19.27-.92-.13-1s-.47.35-.53.74c-.1-.33-.38-.74-.68-.66s-.13.83.11 1c-.05-.12 0-.41.15-.43a.29.29 0 0 1 .3.29c0 .24-.29.41-.6.48a1 1 0 0 1-1.09-.36.8.8 0 0 1 .72.06 3.37 3.37 0 0 1-.33-.93 1.12 1.12 0 0 1-.5.66 1.39 1.39 0 0 1 .19-1l-.86.36A7.7 7.7 0 0 1 24 8.82a.78.78 0 0 0-.26.57 1 1 0 0 0 .52.81A7 7 0 0 0 23 11.33a7.39 7.39 0 0 0-1.38 2.31l-.05.12.29.31a.71.71 0 0 1 .27-.3l.43.17c-.18.13-.39.3-.35.35s.12-.06.16-.09a.57.57 0 0 1 .58-.16.42.42 0 0 1 .24.23.43.43 0 0 1 0 .35.77.77 0 0 1-.32.35l-.39-.15a1.32 1.32 0 0 0 .34-.33.08.08 0 0 0 0-.07s-.12 0-.2.11a.86.86 0 0 1-.3.16 1.45 1.45 0 0 1 .32.71 1.11 1.11 0 0 0 .3.81c.32.4 0 .37.27.86v-.42h4.31v4.71a.59.59 0 0 0-.51.2c.49.2 1 .38 1.47.53a1.22 1.22 0 0 1 .28-.65l-1-.08v-4.75h4.22a6 6 0 0 1-.35 1.88 5.15 5.15 0 0 1-.95 1.64 4.42 4.42 0 0 1-1.39 1.1 1 1 0 0 0-.29.44 1.75 1.75 0 0 0-.14.47c.2.05.24.09.43.14 1.48.37 1.87.3 2 .23a6.32 6.32 0 0 0 .93-.87 7.33 7.33 0 0 0 1.38-2.32 8 8 0 0 0 .4-2.85 4.7 4.7 0 0 0 0-.53m-2-4.38.17.22-.74 1.44-.28-.37.14-.25-.29-.35-.24.08-.34-.33Zm-1-.92.25.2L30.4 12l-.34-.24.43-.57-.42.11-.07-.45-.4.57-.36-.19.82-1.18.28.14.09.6Zm-6.94-1.25c0-.82 2.3-.89 3.47-.89 1.17 0 3.47.07 3.47.89 0 .23-.14.42-.47.62a5.42 5.42 0 0 0-3-.81 5.43 5.43 0 0 0-3 .81c-.33-.2-.47-.39-.47-.62m4.94.32-.28 1.42-.41-.08.28-1.42Zm-2.08 1.08-.18.39a1.63 1.63 0 0 1-.71 0 .71.71 0 0 1-.74-1 .78.78 0 0 1 .45-.4.71.71 0 0 1 .94.43.64.64 0 0 1 0 .24.77.77 0 0 1-.11.39.89.89 0 0 0 .31 0m-2.72-.19.26.29-.28.26.65.71-.29.27-.65-.71-.28.26-.27-.28Zm-1 1 1.06.84-.25.31-1.06-.83Zm0 2.21a.63.63 0 0 1-.52-.05.67.67 0 0 1-.34-.4.71.71 0 0 1 .06-.55.68.68 0 0 1 .94-.32.66.66 0 0 1 .34.41.64.64 0 0 1 0 .2.76.76 0 0 1-.51.71m0 2.54a5.85 5.85 0 0 1 .34-1.9 5.26 5.26 0 0 1 1-1.64 4.42 4.42 0 0 1 1.39-1.1 3.77 3.77 0 0 1 1.63-.4v5Zm4.41-5.4a.57.57 0 0 1-.62-.57V9.6h.41V10.56a.21.21 0 0 0 .16.06.27.27 0 0 0 .19-.07s0 0 0-.16v-.8h.41v.84a.55.55 0 0 1-.15.4.62.62 0 0 1-.47.19m.17 5.34v-5a3.78 3.78 0 0 1 1.53.4 4.42 4.42 0 0 1 1.39 1.1 5.26 5.26 0 0 1 .95 1.64 6.14 6.14 0 0 1 .35 1.9ZM31.25 22l-.25-.25.34-.35-.07-.08-.33.34-.29-.27.34-.34-.12-.05-.36.35-.28-.35.65-.64 1 1Zm1.14-1.28a.81.81 0 0 1-.33.24l-.39-.27c.41-.13.44-.25.42-.27s-.08 0-.16.06a.55.55 0 0 1-.61 0 .42.42 0 0 1-.18-.27.45.45 0 0 1 .07-.34.8.8 0 0 1 .39-.28l.4.26h-.07a.76.76 0 0 0-.38.2s0 .05 0 .06.14 0 .22-.06a.54.54 0 0 1 .55 0 .41.41 0 0 1 .18.27.19.19 0 0 1 0 .08.51.51 0 0 1-.1.29m.84-1.69-.87.3.64.26-.15.37-1.3-.52.12-.3.86-.3-.64-.26.15-.37 1.31.53Zm.22-.68-.39-.07.09-.48h-.1l-.09.46-.39-.07.09-.46h-.12l-.09.5-.39-.07.17-.9 1.38.25Zm.22-1.69a.5.5 0 0 1-.14.37.46.46 0 0 1-.33.12.44.44 0 0 1-.3-.13.52.52 0 0 1-.13-.38v-.01h-.51v-.41h1.41ZM16.37 26.49l-.09.05.36.59.09-.05c.31-.16.27-.38.19-.5s-.36-.18-.55-.09M35.59 24.67v-.05a.09.09 0 0 0-.06-.08l-.12-.07a1.5 1.5 0 0 1-.1.16l.11.06a.12.12 0 0 0 .1 0M33.74 24.46c.28.07.46 0 .56-.24s0-.36-.3-.45h-.11c0 .07-.23.67-.24.69h.09M36.54 26a.4.4 0 0 0 .3 0 .37.37 0 0 0 .24-.17.32.32 0 0 0 0-.27.41.41 0 0 0-.18-.23.46.46 0 0 0-.3-.05.36.36 0 0 0-.24.18.33.33 0 0 0 0 .27.34.34 0 0 0 .18.23M29.56 29.21a.39.39 0 0 0-.28-.1.48.48 0 0 0-.3.12.37.37 0 0 0-.11.28.33.33 0 0 0 .11.27.35.35 0 0 0 .29.09.38.38 0 0 0 .29-.12.36.36 0 0 0 .12-.28.34.34 0 0 0-.12-.26"/>
        <path d="M39.48 28.08c.8 0 1.52-1 2.52-1.46-2.54.74-6-3.57-8.43-3.57a1.86 1.86 0 0 0-1.83 1.18c-.4 1-.85 1.3-.85 1.74s.34.67.92 1c.38.2.77.3.74.66a12.83 12.83 0 0 1-5 .84 12.9 12.9 0 0 1-5-.84c0-.36.37-.46.75-.66.58-.31.92-.6.92-1s-.45-.76-.85-1.74a1.86 1.86 0 0 0-1.83-1.18c-2.38 0-5.89 4.31-8.43 3.57 1 .45 1.72 1.46 2.52 1.46 2.02 0 4.37-3.08 6.64-3.08h.1c-.52.64-1.25.78-1.25 1.43 0 .46.4.73.67 1.34a7.32 7.32 0 0 1 .35 1.2c.13.47.46 1.69 5.39 1.69s5.27-1.22 5.4-1.69a7.32 7.32 0 0 1 .35-1.2c.27-.61.67-.88.67-1.34 0-.66-.73-.79-1.25-1.44h.1c2.23 0 4.62 3.09 6.68 3.09m.34-1.48-.2.36-.47-.22c-.14.21-.51.81-.58.92l-.41-.17s.46-.71.6-.95l-.4-.23.2-.36c.33.19 1 .53 1.26.65m-1.4-.77-.82 1.34-.38-.24.78-1.32Zm-1.89-.91a.81.81 0 0 1 .62.1.79.79 0 0 1 .39.49.64.64 0 0 1 0 .2.77.77 0 0 1-.12.4.74.74 0 0 1-.51.35.85.85 0 0 1-.62-.1.83.83 0 0 1-.39-.48.76.76 0 0 1 .09-.6.79.79 0 0 1 .51-.36m-.71-.76a.63.63 0 0 1 .23.23.41.41 0 0 1 0 .44.37.37 0 0 1-.24.19h-.12v.23c0 .32.06.68.06.68l-.47-.3v-.45c0-.16 0-.23-.07-.26l-.29.48-.38-.2.77-1.35.53.3m-2.21-.91.59.14a.68.68 0 0 1 .52.95.84.84 0 0 1-1.11.52l-.53-.13Zm-16.68 4.2-.45.25-.79-1.31.48-.27a1.15 1.15 0 0 1 .45-.14.84.84 0 0 1 .69.4.73.73 0 0 1-.38 1.07m1.19-.71-.82-1.31.36-.23.82 1.31Zm.86-.57-.82-1.31.85-.55.22.35-.49.33.07.12.48-.32.22.35-.48.32.09.14.51-.34.22.35Zm1.77-1a.61.61 0 0 1-.89-.33l-.36-.83.39-.21.38.84c.08.17.16.23.33.15s.19-.18.12-.34l-.38-.87.43-.15.36.85a.6.6 0 0 1-.37.88m1.57 2.34c-.6-.31-.94-.67-.94-1 0-.61 1-1 1.34-1.43.56.09 1.31.36 1.31.86s-1.88.82-1.71 1.61m1 2.27-.09-1.58c.25.07.78.21 1.05.26v.43l-.59-.13a.57.57 0 0 1 0 .14l.55.14v.43l-.53-.13v.17a5.52 5.52 0 0 0 .58.14v.44a5 5 0 0 1-1-.31m2.46-.68-.46-.05v1.2l-.45-.07V29l-.45-.07v-.43c.39.07.93.15 1.36.2Zm2.51 1.25h-.45v-.87l-.38.45-.37-.45v.86h-.44v-1.6H27s.38.47.45.54l.43-.54h.39Zm1.62-.28a1 1 0 0 1-.63.24.82.82 0 0 1-.61-.21.73.73 0 0 1-.25-.58.8.8 0 0 1 .25-.6.89.89 0 0 1 .62-.25.85.85 0 0 1 .62.21.76.76 0 0 1 .25.59.82.82 0 0 1-.25.6m1.86-.27-.33.12-.67-.67c0 .16-.05.86-.05.86l-.44.08.1-1.65.32-.06.67.69v-.84l.44-.12Zm1.94-3.33c0 .37-.34.73-.94 1 .17-.79-1.71-1-1.71-1.61s.75-.77 1.31-.86c.38.47 1.34.82 1.34 1.43"/>
    </g>
</svg>
