<svg xmlns="http://www.w3.org/2000/svg" width="140" height="140" viewBox="0 0 140 140">
    <path fill="#0D1D45" d="M70.087 0C31.287 0 0 31.287 0 69.913S31.287 140 70.087 140c38.8 0 69.913-31.287 69.913-70.087C140 31.113 108.713 0 70.087 0Zm35.306 67.29c1.747 0 4.544.699 6.117.699 1.573 0 2.446-.174 2.972-.351 0 2.62-2.624 6.117-5.418 6.117-2.446 0-4.193-.874-6.117-.874-1.573 0-2.446.349-2.971.526v23.945h-6.469V46.315h21.848l2.446 5.943H100.15l-.174 17.829c1.398-2.098 3.67-2.797 5.417-2.797ZM34.781 93.333c5.595-.174 5.943-4.895 5.943-10.313V52.432H22.895l2.446-5.943H47.19v36.354c0 9.614-4.718 15.38-12.06 15.38-6.291 0-11.712-3.32-11.886-10.487-.174-5.418 2.623-7.342 5.244-7.342 2.62 0 4.019 1.573 4.019 3.67 0 2.273-2.098 3.846-4.719 3.672.175 1.398 1.4 5.768 6.99 5.591l.004.006Zm30.762-18.876h-4.718v22.895h-6.469v-50.86c4.37-4.018 11.886-5.417 15.905-5.417s16.778 1.747 16.778 17.13c0 7.515-5.591 13.107-11.186 15.03l12.933 24.12H81.27L70.435 76.732c-1.224-2.446-2.797-2.272-4.895-2.272l.003-.003Z"/>
    <path fill="#0D1D45" d="M80.4 57.679c0-6.468-4.37-10.487-10.661-10.487-4.544 0-7.69 1.399-8.915 2.272v19.401h9.089c6.465 0 10.487-5.591 10.487-11.186Z"/>
</svg>
